<?xml version="1.0" encoding="UTF-8"?>
<svg width="792px" height="392px" viewBox="0 0 792 392" version="1.1" xmlns="http://www.w3.org/2000/svg" xmlns:xlink="http://www.w3.org/1999/xlink">
    <!-- Generator: Sketch 64 (93537) - https://sketch.com -->
    <title>interpolation</title>
    <desc>Created with Sketch.</desc>
    <g id="interpolation" stroke="none" stroke-width="1" fill="none" fill-rule="evenodd">
        <rect fill="#FFFFFF" x="0" y="0" width="792" height="392"></rect>
        <g id="axis/General" transform="translate(-561.000000, 36.000000)" fill-rule="nonzero">
            <g id="axis/label-x" transform="translate(1217.000000, 260.000000)" fill="#333333">
                <path d="M1.6,16 L2.656,14.192 C2.784,13.9466667 2.912,13.7093333 3.04,13.48 C3.168,13.2506667 3.30133333,13.024 3.44,12.8 L3.44,12.8 L3.504,12.8 C3.65333333,13.024 3.79733333,13.2533333 3.936,13.488 L3.936,13.488 L4.352,14.192 L5.488,16 L6.912,16 L4.384,12.08 L6.736,8.224 L5.36,8.224 L4.416,9.936 C4.29866667,10.1493333 4.18133333,10.3653333 4.064,10.584 L3.888,10.91 L3.888,10.91 L3.712,11.232 L3.648,11.232 C3.50933333,11.0186667 3.376,10.8026667 3.248,10.584 C3.12,10.3653333 2.99733333,10.1493333 2.88,9.936 L2.88,9.936 L1.84,8.224 L0.416,8.224 L2.768,11.936 L0.224,16 L1.6,16 Z" id="x"></path>
            </g>
            <path id="Path-6" d="M707,4 L714,18 L708,18 L708,271 L1193,271 L1193,265 L1207,272 L1193,279 L1193,273 L706,273 L706,18 L700,18 L707,4 Z" fill="#636F80"></path>
            <g id="axis/label-y" fill="#333333">
                <path d="M687.968,19.344 C688.362667,19.344 688.709333,19.2746667 689.008,19.136 C689.306667,18.9973333 689.573333,18.808 689.808,18.568 C690.042667,18.328 690.245333,18.0426667 690.416,17.712 C690.586667,17.3813333 690.741333,17.024 690.88,16.64 L690.88,16.64 L693.808,8.224 L692.528,8.224 L691.136,12.528 C691.029333,12.8693333 690.922667,13.232 690.816,13.616 C690.709333,14 690.597333,14.368 690.48,14.72 L690.48,14.72 L690.416,14.72 C690.298667,14.3573333 690.173333,13.9866667 690.04,13.608 C689.906667,13.2293333 689.781333,12.8693333 689.664,12.528 L689.664,12.528 L688.08,8.224 L686.72,8.224 L689.84,16.016 L689.664,16.592 C689.504,17.072 689.282667,17.4693333 689,17.784 C688.717333,18.0986667 688.352,18.256 687.904,18.256 C687.808,18.256 687.706667,18.2426667 687.6,18.216 L687.6,18.216 L687.312,18.144 L687.056,19.184 C687.184,19.2373333 687.322667,19.2773333 687.472,19.304 C687.621333,19.3306667 687.786667,19.344 687.968,19.344 Z" id="y"></path>
            </g>
        </g>
        <polyline id="Stroke-1" stroke="#73B0DE" stroke-width="3" points="146 192.511757 283.956355 213 415.186807 126 568 190.923785"></polyline>
        <line x1="416.5" y1="127" x2="416.5" y2="324" id="Stroke-2" stroke="#9A9FAF" stroke-width="2" stroke-dasharray="6"></line>
        <g id="Chart/Range" transform="translate(284.000000, 332.000000)" fill="#F7931E" fill-rule="nonzero">
            <path id="Path-8" d="M1,-5.5 L1,-0.5 L131,-0.5 L131,-5.5 L133,-5.5 L133,6.5 L131,6.5 L131,1.499 L1,1.499 L1,6.5 L-1,6.5 L-1,-5.5 L1,-5.5 Z"></path>
        </g>
        <line x1="283.5" y1="210" x2="283.5" y2="324" id="Stroke-3" stroke="#9A9FAF" stroke-width="2" stroke-dasharray="6"></line>
        <path d="M292,212 C292,207.581769 288.418459,204 284.000511,204 C279.581541,204 276,207.581769 276,212 C276,216.418231 279.581541,220 284.000511,220 C288.418459,220 292,216.418231 292,212" id="Fill-9" fill="#73B0DE"></path>
        <path d="M576,190 C576,185.581769 572.418459,182 568.000511,182 C563.581541,182 560,185.581769 560,190 C560,194.418231 563.581541,198 568.000511,198 C572.418459,198 576,194.418231 576,190" id="Fill-9-Copy-3" fill="#73B0DE"></path>
        <path d="M424,126 C424,121.581769 420.418459,118 416.000511,118 C411.581541,118 408,121.581769 408,126 C408,130.418231 411.581541,134 416.000511,134 C420.418459,134 424,130.418231 424,126" id="Fill-9-Copy-2" fill="#73B0DE"></path>
        <path d="M154,192 C154,187.581769 150.418459,184 146.000511,184 C141.581541,184 138,187.581769 138,192 C138,196.418231 141.581541,200 146.000511,200 C150.418459,200 154,196.418231 154,192" id="Fill-9-Copy" fill="#73B0DE"></path>
        <path d="M363,166.5 C363,161.80563 359.194613,158 354.500543,158 C349.805387,158 346,161.80563 346,166.5 C346,171.19437 349.805387,175 354.500543,175 C359.194613,175 363,171.19437 363,166.5" id="Fill-15" fill="#F7931E"></path>
        <path d="M154.6,174 L155.656,172.192 C155.784,171.946667 155.912,171.709333 156.04,171.48 C156.168,171.250667 156.301333,171.024 156.44,170.8 L156.44,170.8 L156.504,170.8 C156.653333,171.024 156.797333,171.253333 156.936,171.488 L156.936,171.488 L157.352,172.192 L158.488,174 L159.912,174 L157.384,170.08 L159.736,166.224 L158.36,166.224 L157.416,167.936 C157.298667,168.149333 157.181333,168.365333 157.064,168.584 L156.888,168.91 L156.888,168.91 L156.712,169.232 L156.648,169.232 C156.509333,169.018667 156.376,168.802667 156.248,168.584 C156.12,168.365333 155.997333,168.149333 155.88,167.936 L155.88,167.936 L154.84,166.224 L153.416,166.224 L155.768,169.936 L153.224,174 L154.6,174 Z M166.282,178 L166.282,177.048 L164.434,177.048 L164.434,169.068 L163.552,169.068 C163.309333,169.217333 163.036333,169.345667 162.733,169.453 C162.429667,169.560333 162.072667,169.651333 161.662,169.726 L161.662,169.726 L161.662,170.468 L163.286,170.468 L163.286,177.048 L161.242,177.048 L161.242,178 L166.282,178 Z" id="x1" fill="#333333" fill-rule="nonzero"></path>
        <path d="M560.6,170 L561.656,168.192 C561.784,167.946667 561.912,167.709333 562.04,167.48 C562.168,167.250667 562.301333,167.024 562.44,166.8 L562.44,166.8 L562.504,166.8 C562.653333,167.024 562.797333,167.253333 562.936,167.488 L562.936,167.488 L563.352,168.192 L564.488,170 L565.912,170 L563.384,166.08 L565.736,162.224 L564.36,162.224 L563.416,163.936 C563.298667,164.149333 563.181333,164.365333 563.064,164.584 L562.888,164.91 L562.888,164.91 L562.712,165.232 L562.648,165.232 C562.509333,165.018667 562.376,164.802667 562.248,164.584 C562.12,164.365333 561.997333,164.149333 561.88,163.936 L561.88,163.936 L560.84,162.224 L559.416,162.224 L561.768,165.936 L559.224,170 L560.6,170 Z M571.484,174 L571.484,171.536 L572.702,171.536 L572.702,170.612 L571.484,170.612 L571.484,165.068 L570.196,165.068 L566.374,170.78 L566.374,171.536 L570.392,171.536 L570.392,174 L571.484,174 Z M570.392,170.612 L567.592,170.612 L569.678,167.56 C569.808667,167.345333 569.934667,167.135333 570.056,166.93 C570.177333,166.724667 570.294,166.514667 570.406,166.3 L570.406,166.3 L570.462,166.3 C570.443333,166.542667 570.427,166.829667 570.413,167.161 C570.399,167.492333 570.392,167.779333 570.392,168.022 L570.392,168.022 L570.392,170.612 Z" id="x4" fill="#333333" fill-rule="nonzero"></path>
        <path d="M355.312,146.832 C355.269333,146.458667 355.296,146.12 355.392,145.816 C355.488,145.512 355.624,145.226667 355.8,144.96 C355.976,144.693333 356.168,144.434667 356.376,144.184 C356.584,143.933333 356.781333,143.68 356.968,143.424 C357.154667,143.168 357.312,142.896 357.44,142.608 C357.568,142.32 357.632,142 357.632,141.648 C357.632,140.848 357.389333,140.221333 356.904,139.768 C356.418667,139.314667 355.770667,139.088 354.96,139.088 C354.373333,139.088 353.853333,139.213333 353.4,139.464 C352.946667,139.714667 352.549333,140.032 352.208,140.416 L352.208,140.416 L352.96,141.104 C353.205333,140.816 353.485333,140.589333 353.8,140.424 C354.114667,140.258667 354.448,140.176 354.8,140.176 C355.312,140.176 355.698667,140.328 355.96,140.632 C356.221333,140.936 356.352,141.301333 356.352,141.728 C356.352,142.016 356.290667,142.282667 356.168,142.528 C356.045333,142.773333 355.893333,143.016 355.712,143.256 C355.530667,143.496 355.336,143.738667 355.128,143.984 C354.92,144.229333 354.736,144.493333 354.576,144.776 C354.416,145.058667 354.290667,145.368 354.2,145.704 C354.109333,146.04 354.096,146.416 354.16,146.832 L354.16,146.832 L355.312,146.832 Z M354.768,150.192 C355.034667,150.192 355.261333,150.098667 355.448,149.912 C355.634667,149.725333 355.728,149.488 355.728,149.2 C355.728,148.890667 355.634667,148.642667 355.448,148.456 C355.261333,148.269333 355.034667,148.176 354.768,148.176 C354.501333,148.176 354.277333,148.269333 354.096,148.456 C353.914667,148.642667 353.824,148.890667 353.824,149.2 C353.824,149.488 353.914667,149.725333 354.096,149.912 C354.277333,150.098667 354.501333,150.192 354.768,150.192 Z" id="?" fill="#333333" fill-rule="nonzero"></path>
        <path d="M408.6,106 L409.656,104.192 C409.784,103.946667 409.912,103.709333 410.04,103.48 C410.168,103.250667 410.301333,103.024 410.44,102.8 L410.44,102.8 L410.504,102.8 C410.653333,103.024 410.797333,103.253333 410.936,103.488 L410.936,103.488 L411.352,104.192 L412.488,106 L413.912,106 L411.384,102.08 L413.736,98.224 L412.36,98.224 L411.416,99.936 C411.298667,100.149333 411.181333,100.365333 411.064,100.584 L410.888,100.91 L410.888,100.91 L410.712,101.232 L410.648,101.232 C410.509333,101.018667 410.376,100.802667 410.248,100.584 C410.12,100.365333 409.997333,100.149333 409.88,99.936 L409.88,99.936 L408.84,98.224 L407.416,98.224 L409.768,101.936 L407.224,106 L408.6,106 Z M417.44,110.168 C417.850667,110.168 418.233333,110.109667 418.588,109.993 C418.942667,109.876333 419.253,109.708333 419.519,109.489 C419.785,109.269667 419.995,109.001333 420.149,108.684 C420.303,108.366667 420.38,108.012 420.38,107.62 C420.38,107.312 420.331,107.032 420.233,106.78 C420.135,106.528 419.997333,106.306333 419.82,106.115 C419.642667,105.923667 419.437333,105.765 419.204,105.639 C418.970667,105.513 418.718667,105.417333 418.448,105.352 L418.448,105.352 L418.448,105.296 C418.933333,105.109333 419.325333,104.843333 419.624,104.498 C419.922667,104.152667 420.072,103.709333 420.072,103.168 C420.072,102.804 420.006667,102.482 419.876,102.202 C419.745333,101.922 419.561,101.686333 419.323,101.495 C419.085,101.303667 418.802667,101.156667 418.476,101.054 C418.149333,100.951333 417.79,100.9 417.398,100.9 C416.866,100.9 416.392333,101.005 415.977,101.215 C415.561667,101.425 415.181333,101.693333 414.836,102.02 L414.836,102.02 L415.452,102.748 C415.722667,102.477333 416.014333,102.258 416.327,102.09 C416.639667,101.922 416.982667,101.838 417.356,101.838 C417.832,101.838 418.207667,101.964 418.483,102.216 C418.758333,102.468 418.896,102.813333 418.896,103.252 C418.896,103.485333 418.854,103.704667 418.77,103.91 C418.686,104.115333 418.543667,104.292667 418.343,104.442 C418.142333,104.591333 417.881,104.708 417.559,104.792 C417.237,104.876 416.838,104.918 416.362,104.918 L416.362,104.918 L416.362,105.8 C416.894,105.8 417.342,105.842 417.706,105.926 C418.07,106.01 418.364,106.131333 418.588,106.29 C418.812,106.448667 418.973,106.637667 419.071,106.857 C419.169,107.076333 419.218,107.316667 419.218,107.578 C419.218,108.082 419.045333,108.481 418.7,108.775 C418.354667,109.069 417.911333,109.216 417.37,109.216 C416.838,109.216 416.392333,109.108667 416.033,108.894 C415.673667,108.679333 415.358667,108.432 415.088,108.152 L415.088,108.152 L414.5,108.908 C414.649333,109.076 414.819667,109.234667 415.011,109.384 C415.202333,109.533333 415.419333,109.666333 415.662,109.783 C415.904667,109.899667 416.173,109.993 416.467,110.063 C416.761,110.133 417.085333,110.168 417.44,110.168 Z" id="x3" fill="#333333" fill-rule="nonzero"></path>
        <path d="M278.6,192 L279.656,190.192 C279.784,189.946667 279.912,189.709333 280.04,189.48 C280.168,189.250667 280.301333,189.024 280.44,188.8 L280.44,188.8 L280.504,188.8 C280.653333,189.024 280.797333,189.253333 280.936,189.488 L280.936,189.488 L281.352,190.192 L282.488,192 L283.912,192 L281.384,188.08 L283.736,184.224 L282.36,184.224 L281.416,185.936 C281.298667,186.149333 281.181333,186.365333 281.064,186.584 L280.888,186.91 L280.888,186.91 L280.712,187.232 L280.648,187.232 C280.509333,187.018667 280.376,186.802667 280.248,186.584 C280.12,186.365333 279.997333,186.149333 279.88,185.936 L279.88,185.936 L278.84,184.224 L277.416,184.224 L279.768,187.936 L277.224,192 L278.6,192 Z M290.464,196 L290.464,195.006 L287.874,195.006 C287.640667,195.006 287.393333,195.015333 287.132,195.034 C286.870667,195.052667 286.618667,195.071333 286.376,195.09 C286.908,194.539333 287.395667,194.019 287.839,193.529 C288.282333,193.039 288.665,192.567667 288.987,192.115 C289.309,191.662333 289.561,191.223667 289.743,190.799 C289.925,190.374333 290.016,189.952 290.016,189.532 C290.016,188.738667 289.778,188.101667 289.302,187.621 C288.826,187.140333 288.172667,186.9 287.342,186.9 C286.754,186.9 286.25,187.023667 285.83,187.271 C285.41,187.518333 285.013333,187.847333 284.64,188.258 L284.64,188.258 L285.298,188.916 C285.559333,188.617333 285.848667,188.363 286.166,188.153 C286.483333,187.943 286.828667,187.838 287.202,187.838 C287.771333,187.838 288.196,188.001333 288.476,188.328 C288.756,188.654667 288.896,189.074667 288.896,189.588 C288.896,189.952 288.802667,190.327667 288.616,190.715 C288.429333,191.102333 288.158667,191.527 287.804,191.989 C287.449333,192.451 287.010667,192.952667 286.488,193.494 C285.965333,194.035333 285.368,194.642 284.696,195.314 L284.696,195.314 L284.696,196 L290.464,196 Z" id="x2" fill="#333333" fill-rule="nonzero"></path>
        <path d="M349.928,352 L349.928,351.2 L346.472,341.504 L344.936,341.504 L341.48,351.2 L341.48,352 L349.928,352 Z M348.456,350.864 L342.92,350.864 L344.552,346.064 L345.656,342.704 L345.72,342.704 L346.824,346.064 L348.456,350.864 Z M352.008,352 L353.064,350.192 C353.192,349.946667 353.32,349.709333 353.448,349.48 C353.576,349.250667 353.709333,349.024 353.848,348.8 L353.848,348.8 L353.912,348.8 C354.061333,349.024 354.205333,349.253333 354.344,349.488 L354.344,349.488 L354.76,350.192 L355.896,352 L357.32,352 L354.792,348.08 L357.144,344.224 L355.768,344.224 L354.824,345.936 C354.706667,346.149333 354.589333,346.365333 354.472,346.584 L354.296,346.91 L354.296,346.91 L354.12,347.232 L354.056,347.232 C353.917333,347.018667 353.784,346.802667 353.656,346.584 C353.528,346.365333 353.405333,346.149333 353.288,345.936 L353.288,345.936 L352.248,344.224 L350.824,344.224 L353.176,347.936 L350.632,352 L352.008,352 Z" id="Δx" fill="#333333" fill-rule="nonzero"></path>
    </g>
</svg>