<?xml version="1.0" encoding="UTF-8"?>
<svg width="792px" height="484px" viewBox="0 0 792 484" version="1.1" xmlns="http://www.w3.org/2000/svg" xmlns:xlink="http://www.w3.org/1999/xlink">
    <title>twodim-outlier</title>
    <g id="twodim-outlier" stroke="none" stroke-width="1" fill="none" fill-rule="evenodd">
        <rect fill="#FFFFFF" x="0" y="0" width="792" height="484"></rect>
        <g id="axis/general" transform="translate(200.000000, 40.000000)" fill="#636F80" fill-rule="nonzero">
            <path id="Path-6-Copy" d="M0,0 L7,14 L1,14 L1,364 L379,364 L379,358 L393,365 L379,372 L379,366 L-1,366 L-1,14 L-7,14 L0,0 Z"></path>
        </g>
        <path d="M284,307 C284,305.34304 282.657065,304 281.000234,304 C279.343402,304 278,305.34304 278,307 C278,308.65696 279.343402,310 281.000234,310 C282.657065,310 284,308.65696 284,307" id="Fill-29" fill="#73B0DE"></path>
        <path d="M269,342 C269,340.34304 267.657065,339 266.000234,339 C264.343402,339 263,340.34304 263,342 C263,343.65696 264.343402,345 266.000234,345 C267.657065,345 269,343.65696 269,342" id="Fill-29-Copy" fill="#73B0DE"></path>
        <path d="M252,361 C252,359.34304 250.657065,358 249.000234,358 C247.343402,358 246,359.34304 246,361 C246,362.65696 247.343402,364 249.000234,364 C250.657065,364 252,362.65696 252,361" id="Fill-29-Copy-2" fill="#73B0DE"></path>
        <path d="M298,352 C298,350.34304 296.657065,349 295.000234,349 C293.343402,349 292,350.34304 292,352 C292,353.65696 293.343402,355 295.000234,355 C296.657065,355 298,353.65696 298,352" id="Fill-29-Copy-3" fill="#73B0DE"></path>
        <path d="M298,319 C298,317.34304 296.657065,316 295.000234,316 C293.343402,316 292,317.34304 292,319 C292,320.65696 293.343402,322 295.000234,322 C296.657065,322 298,320.65696 298,319" id="Fill-29-Copy-4" fill="#73B0DE"></path>
        <path d="M326,307 C326,305.34304 324.657065,304 323.000234,304 C321.343402,304 320,305.34304 320,307 C320,308.65696 321.343402,310 323.000234,310 C324.657065,310 326,308.65696 326,307" id="Fill-29-Copy-5" fill="#73B0DE"></path>
        <path d="M362,283 C362,281.34304 360.657065,280 359.000234,280 C357.343402,280 356,281.34304 356,283 C356,284.65696 357.343402,286 359.000234,286 C360.657065,286 362,284.65696 362,283" id="Fill-29-Copy-10" fill="#73B0DE"></path>
        <path d="M365,280 C365,278.34304 363.657065,277 362.000234,277 C360.343402,277 359,278.34304 359,280 C359,281.65696 360.343402,283 362.000234,283 C363.657065,283 365,281.65696 365,280" id="Fill-29-Copy-12" fill="#73B0DE"></path>
        <path d="M353,264 C353,262.34304 351.657065,261 350.000234,261 C348.343402,261 347,262.34304 347,264 C347,265.65696 348.343402,267 350.000234,267 C351.657065,267 353,265.65696 353,264" id="Fill-29-Copy-15" fill="#73B0DE"></path>
        <path d="M372,269 C372,267.34304 370.657065,266 369.000234,266 C367.343402,266 366,267.34304 366,269 C366,270.65696 367.343402,272 369.000234,272 C370.657065,272 372,270.65696 372,269" id="Fill-29-Copy-14" fill="#73B0DE"></path>
        <path d="M394,280 C394,278.34304 392.657065,277 391.000234,277 C389.343402,277 388,278.34304 388,280 C388,281.65696 389.343402,283 391.000234,283 C392.657065,283 394,281.65696 394,280" id="Fill-29-Copy-27" fill="#73B0DE"></path>
        <path d="M442,259 C442,257.34304 440.657065,256 439.000234,256 C437.343402,256 436,257.34304 436,259 C436,260.65696 437.343402,262 439.000234,262 C440.657065,262 442,260.65696 442,259" id="Fill-29-Copy-31" fill="#73B0DE"></path>
        <path d="M458,234 C458,232.34304 456.657065,231 455.000234,231 C453.343402,231 452,232.34304 452,234 C452,235.65696 453.343402,237 455.000234,237 C456.657065,237 458,235.65696 458,234" id="Fill-29-Copy-32" fill="#73B0DE"></path>
        <path d="M449,210 C449,208.34304 447.657065,207 446.000234,207 C444.343402,207 443,208.34304 443,210 C443,211.65696 444.343402,213 446.000234,213 C447.657065,213 449,211.65696 449,210" id="Fill-29-Copy-42" fill="#73B0DE"></path>
        <path d="M468,202 C468,200.34304 466.657065,199 465.000234,199 C463.343402,199 462,200.34304 462,202 C462,203.65696 463.343402,205 465.000234,205 C466.657065,205 468,203.65696 468,202" id="Fill-29-Copy-43" fill="#73B0DE"></path>
        <path d="M436,194 C436,192.34304 434.657065,191 433.000234,191 C431.343402,191 430,192.34304 430,194 C430,195.65696 431.343402,197 433.000234,197 C434.657065,197 436,195.65696 436,194" id="Fill-29-Copy-44" fill="#73B0DE"></path>
        <path d="M467,164 C467,162.34304 465.657065,161 464.000234,161 C462.343402,161 461,162.34304 461,164 C461,165.65696 462.343402,167 464.000234,167 C465.657065,167 467,165.65696 467,164" id="Fill-29-Copy-47" fill="#73B0DE"></path>
        <path d="M509,149 C509,147.34304 507.657065,146 506.000234,146 C504.343402,146 503,147.34304 503,149 C503,150.65696 504.343402,152 506.000234,152 C507.657065,152 509,150.65696 509,149" id="Fill-29-Copy-49" fill="#73B0DE"></path>
        <path d="M426,142 C426,140.34304 424.657065,139 423.000234,139 C421.343402,139 420,140.34304 420,142 C420,143.65696 421.343402,145 423.000234,145 C424.657065,145 426,143.65696 426,142" id="Fill-29-Copy-50" fill="#73B0DE"></path>
        <path d="M481,145 C481,143.34304 479.657065,142 478.000234,142 C476.343402,142 475,143.34304 475,145 C475,146.65696 476.343402,148 478.000234,148 C479.657065,148 481,146.65696 481,145" id="Fill-29-Copy-48" fill="#73B0DE"></path>
        <path d="M438,225 C438,223.34304 436.657065,222 435.000234,222 C433.343402,222 432,223.34304 432,225 C432,226.65696 433.343402,228 435.000234,228 C436.657065,228 438,226.65696 438,225" id="Fill-29-Copy-33" fill="#73B0DE"></path>
        <path d="M458,198 C458,196.34304 456.657065,195 455.000234,195 C453.343402,195 452,196.34304 452,198 C452,199.65696 453.343402,201 455.000234,201 C456.657065,201 458,199.65696 458,198" id="Fill-29-Copy-41" fill="#73B0DE"></path>
        <path d="M425,233 C425,231.34304 423.657065,230 422.000234,230 C420.343402,230 419,231.34304 419,233 C419,234.65696 420.343402,236 422.000234,236 C423.657065,236 425,234.65696 425,233" id="Fill-29-Copy-36" fill="#73B0DE"></path>
        <path d="M428,220 C428,218.34304 426.657065,217 425.000234,217 C423.343402,217 422,218.34304 422,220 C422,221.65696 423.343402,223 425.000234,223 C426.657065,223 428,221.65696 428,220" id="Fill-29-Copy-35" fill="#73B0DE"></path>
        <path d="M430,228 C430,226.34304 428.657065,225 427.000234,225 C425.343402,225 424,226.34304 424,228 C424,229.65696 425.343402,231 427.000234,231 C428.657065,231 430,229.65696 430,228" id="Fill-29-Copy-34" fill="#73B0DE"></path>
        <path d="M412,232 C412,230.34304 410.657065,229 409.000234,229 C407.343402,229 406,230.34304 406,232 C406,233.65696 407.343402,235 409.000234,235 C410.657065,235 412,233.65696 412,232" id="Fill-29-Copy-37" fill="#73B0DE"></path>
        <path d="M387,218 C387,216.34304 385.657065,215 384.000234,215 C382.343402,215 381,216.34304 381,218 C381,219.65696 382.343402,221 384.000234,221 C385.657065,221 387,219.65696 387,218" id="Fill-29-Copy-39" fill="#73B0DE"></path>
        <path d="M391,196 C391,194.34304 389.657065,193 388.000234,193 C386.343402,193 385,194.34304 385,196 C385,197.65696 386.343402,199 388.000234,199 C389.657065,199 391,197.65696 391,196" id="Fill-29-Copy-45" fill="#73B0DE"></path>
        <path d="M401,213 C401,211.34304 399.657065,210 398.000234,210 C396.343402,210 395,211.34304 395,213 C395,214.65696 396.343402,216 398.000234,216 C399.657065,216 401,214.65696 401,213" id="Fill-29-Copy-40" fill="#73B0DE"></path>
        <path d="M419,177 C419,175.34304 417.657065,174 416.000234,174 C414.343402,174 413,175.34304 413,177 C413,178.65696 414.343402,180 416.000234,180 C417.657065,180 419,178.65696 419,177" id="Fill-29-Copy-46" fill="#73B0DE"></path>
        <path d="M398,239 C398,237.34304 396.657065,236 395.000234,236 C393.343402,236 392,237.34304 392,239 C392,240.65696 393.343402,242 395.000234,242 C396.657065,242 398,240.65696 398,239" id="Fill-29-Copy-38" fill="#73B0DE"></path>
        <path d="M404,252 C404,250.34304 402.657065,249 401.000234,249 C399.343402,249 398,250.34304 398,252 C398,253.65696 399.343402,255 401.000234,255 C402.657065,255 404,253.65696 404,252" id="Fill-29-Copy-26" fill="#73B0DE"></path>
        <path d="M400,258 C400,256.34304 398.657065,255 397.000234,255 C395.343402,255 394,256.34304 394,258 C394,259.65696 395.343402,261 397.000234,261 C398.657065,261 400,259.65696 400,258" id="Fill-29-Copy-25" fill="#73B0DE"></path>
        <path d="M383,247 C383,245.34304 381.657065,244 380.000234,244 C378.343402,244 377,245.34304 377,247 C377,248.65696 378.343402,250 380.000234,250 C381.657065,250 383,248.65696 383,247" id="Fill-29-Copy-24" fill="#73B0DE"></path>
        <path d="M384,306 C384,304.34304 382.657065,303 381.000234,303 C379.343402,303 378,304.34304 378,306 C378,307.65696 379.343402,309 381.000234,309 C382.657065,309 384,307.65696 384,306" id="Fill-29-Copy-13" fill="#73B0DE"></path>
        <path d="M421,288 C421,286.34304 419.657065,285 418.000234,285 C416.343402,285 415,286.34304 415,288 C415,289.65696 416.343402,291 418.000234,291 C419.657065,291 421,289.65696 421,288" id="Fill-29-Copy-29" fill="#73B0DE"></path>
        <path d="M406,271 C406,269.34304 404.657065,268 403.000234,268 C401.343402,268 400,269.34304 400,271 C400,272.65696 401.343402,274 403.000234,274 C404.657065,274 406,272.65696 406,271" id="Fill-29-Copy-30" fill="#73B0DE"></path>
        <path d="M314,293 C314,291.34304 312.657065,290 311.000234,290 C309.343402,290 308,291.34304 308,293 C308,294.65696 309.343402,296 311.000234,296 C312.657065,296 314,294.65696 314,293" id="Fill-29-Copy-8" fill="#73B0DE"></path>
        <path d="M334,280 C334,278.34304 332.657065,277 331.000234,277 C329.343402,277 328,278.34304 328,280 C328,281.65696 329.343402,283 331.000234,283 C332.657065,283 334,281.65696 334,280" id="Fill-29-Copy-9" fill="#73B0DE"></path>
        <path d="M335,267 C335,265.34304 333.657065,264 332.000234,264 C330.343402,264 329,265.34304 329,267 C329,268.65696 330.343402,270 332.000234,270 C333.657065,270 335,268.65696 335,267" id="Fill-29-Copy-11" fill="#73B0DE"></path>
        <path d="M308,250 C308,248.34304 306.657065,247 305.000234,247 C303.343402,247 302,248.34304 302,250 C302,251.65696 303.343402,253 305.000234,253 C306.657065,253 308,251.65696 308,250" id="Fill-29-Copy-18" fill="#73B0DE"></path>
        <path d="M312,258 C312,256.34304 310.657065,255 309.000234,255 C307.343402,255 306,256.34304 306,258 C306,259.65696 307.343402,261 309.000234,261 C310.657065,261 312,259.65696 312,258" id="Fill-29-Copy-17" fill="#73B0DE"></path>
        <path d="M295,241 C295,239.34304 293.657065,238 292.000234,238 C290.343402,238 289,239.34304 289,241 C289,242.65696 290.343402,244 292.000234,244 C293.657065,244 295,242.65696 295,241" id="Fill-29-Copy-20" fill="#73B0DE"></path>
        <path d="M298,257 C298,255.34304 296.657065,254 295.000234,254 C293.343402,254 292,255.34304 292,257 C292,258.65696 293.343402,260 295.000234,260 C296.657065,260 298,258.65696 298,257" id="Fill-29-Copy-19" fill="#73B0DE"></path>
        <path d="M329,244 C329,242.34304 327.657065,241 326.000234,241 C324.343402,241 323,242.34304 323,244 C323,245.65696 324.343402,247 326.000234,247 C327.657065,247 329,245.65696 329,244" id="Fill-29-Copy-16" fill="#73B0DE"></path>
        <path d="M359,219 C359,217.34304 357.657065,216 356.000234,216 C354.343402,216 353,217.34304 353,219 C353,220.65696 354.343402,222 356.000234,222 C357.657065,222 359,220.65696 359,219" id="Fill-29-Copy-23" fill="#73B0DE"></path>
        <path d="M319,186 C319,184.34304 317.657065,183 316.000234,183 C314.343402,183 313,184.34304 313,186 C313,187.65696 314.343402,189 316.000234,189 C317.657065,189 319,187.65696 319,186" id="Fill-29-Copy-21" fill="#DA3E3E"></path>
        <path d="M503,326 C503,324.34304 501.657065,323 500.000234,323 C498.343402,323 497,324.34304 497,326 C497,327.65696 498.343402,329 500.000234,329 C501.657065,329 503,327.65696 503,326" id="Fill-29-Copy-28" fill="#DA3E3E"></path>
        <path d="M291,120 C291,118.34304 289.657065,117 288.000234,117 C286.343402,117 285,118.34304 285,120 C285,121.65696 286.343402,123 288.000234,123 C289.657065,123 291,121.65696 291,120" id="Fill-29-Copy-22" fill="#DA3E3E"></path>
        <path d="M337,290 C337,288.34304 335.657065,287 334.000234,287 C332.343402,287 331,288.34304 331,290 C331,291.65696 332.343402,293 334.000234,293 C335.657065,293 337,291.65696 337,290" id="Fill-29-Copy-7" fill="#73B0DE"></path>
        <path d="M345,313 C345,311.34304 343.657065,310 342.000234,310 C340.343402,310 339,311.34304 339,313 C339,314.65696 340.343402,316 342.000234,316 C343.657065,316 345,314.65696 345,313" id="Fill-29-Copy-6" fill="#73B0DE"></path>
        <path d="M299.04,125 C301.376,125 303.008,123.992 303.008,121.928 C303.008,120.488 302.128,119.656 300.88,119.416 L300.88,119.352 C301.856,119.032 302.416,118.104 302.416,117.064 C302.416,115.224 300.928,114.504 298.8,114.504 L295.68,114.504 L295.68,125 L299.04,125 Z M298.576,118.968 L297.024,118.968 L297.024,115.576 L298.624,115.576 C300.256,115.576 301.088,116.024 301.088,117.24 C301.088,118.312 300.352,118.968 298.576,118.968 Z M298.848,123.928 L297.024,123.928 L297.024,119.992 L298.848,119.992 C300.672,119.992 301.68,120.584 301.68,121.88 C301.68,123.288 300.64,123.928 298.848,123.928 Z M307.376,125 C309.216,125 310.464,124.248 310.464,122.52 C310.464,120.808 309.216,120.088 307.376,120.088 L306.288,120.088 L306.288,117.224 L304.96,117.224 L304.96,125 L307.376,125 Z M313.136,125 L313.136,117.224 L311.808,117.224 L311.808,125 L313.136,125 Z M307.232,123.944 L306.288,123.944 L306.288,121.112 L307.232,121.112 C308.544,121.112 309.168,121.544 309.168,122.52 C309.168,123.496 308.544,123.944 307.232,123.944 Z M318.96,125.192 C320.864,125.192 322.384,123.624 322.384,121.144 C322.384,118.872 321.104,117.512 319.264,117.512 C318.288,117.512 317.328,117.96 316.64,118.808 C316.88,115.608 317.952,115.4 320.448,115.032 C321.104,114.936 321.648,114.792 322.064,114.52 L321.792,113.32 C321.312,113.544 321.04,113.624 320.176,113.752 C317.216,114.2 315.296,115.032 315.296,120.28 C315.296,123.416 316.64,125.192 318.96,125.192 Z M318.96,124.088 C317.376,124.088 316.576,122.776 316.576,120.536 L316.576,119.928 L316.576,119.928 C317.36,118.872 318.176,118.536 318.928,118.536 C320.272,118.536 321.008,119.544 321.008,121.144 C321.008,122.904 320.16,124.088 318.96,124.088 Z M325.792,128.28 L325.792,125.656 L325.76,124.296 C326.464,124.856 327.2,125.192 327.904,125.192 C329.68,125.192 331.28,123.64 331.28,121 C331.28,118.584 330.192,117.032 328.192,117.032 C327.296,117.032 326.416,117.528 325.712,118.12 L325.664,118.12 L325.552,117.224 L324.464,117.224 L324.464,128.28 L325.792,128.28 Z M327.68,124.072 C327.168,124.072 326.496,123.864 325.792,123.272 L325.792,119.208 C326.544,118.504 327.2,118.152 327.856,118.152 C329.312,118.152 329.904,119.288 329.904,121 C329.904,122.92 328.96,124.072 327.68,124.072 Z M336.368,125.192 C338.272,125.192 339.984,123.704 339.984,121.128 C339.984,118.52 338.272,117.032 336.368,117.032 C334.464,117.032 332.768,118.52 332.768,121.128 C332.768,123.704 334.464,125.192 336.368,125.192 Z M336.368,124.088 C335.04,124.088 334.144,122.904 334.144,121.128 C334.144,119.336 335.04,118.136 336.368,118.136 C337.712,118.136 338.608,119.336 338.608,121.128 C338.608,122.904 337.712,124.088 336.368,124.088 Z M345.088,125.192 C346.016,125.192 346.896,124.84 347.6,124.2 L347.024,123.352 C346.56,123.768 345.92,124.088 345.2,124.088 C343.776,124.088 342.816,122.904 342.816,121.128 C342.816,119.336 343.84,118.136 345.248,118.136 C345.872,118.136 346.368,118.376 346.8,118.776 L347.456,117.944 C346.912,117.432 346.208,117.032 345.184,117.032 C343.184,117.032 341.44,118.52 341.44,121.128 C341.44,123.704 343.024,125.192 345.088,125.192 Z" id="Выброс" fill="#333333" fill-rule="nonzero"></path>
        <path d="M329.04,191 C331.376,191 333.008,189.992 333.008,187.928 C333.008,186.488 332.128,185.656 330.88,185.416 L330.88,185.352 C331.856,185.032 332.416,184.104 332.416,183.064 C332.416,181.224 330.928,180.504 328.8,180.504 L325.68,180.504 L325.68,191 L329.04,191 Z M328.576,184.968 L327.024,184.968 L327.024,181.576 L328.624,181.576 C330.256,181.576 331.088,182.024 331.088,183.24 C331.088,184.312 330.352,184.968 328.576,184.968 Z M328.848,189.928 L327.024,189.928 L327.024,185.992 L328.848,185.992 C330.672,185.992 331.68,186.584 331.68,187.88 C331.68,189.288 330.64,189.928 328.848,189.928 Z M337.376,191 C339.216,191 340.464,190.248 340.464,188.52 C340.464,186.808 339.216,186.088 337.376,186.088 L336.288,186.088 L336.288,183.224 L334.96,183.224 L334.96,191 L337.376,191 Z M343.136,191 L343.136,183.224 L341.808,183.224 L341.808,191 L343.136,191 Z M337.232,189.944 L336.288,189.944 L336.288,187.112 L337.232,187.112 C338.544,187.112 339.168,187.544 339.168,188.52 C339.168,189.496 338.544,189.944 337.232,189.944 Z M348.96,191.192 C350.864,191.192 352.384,189.624 352.384,187.144 C352.384,184.872 351.104,183.512 349.264,183.512 C348.288,183.512 347.328,183.96 346.64,184.808 C346.88,181.608 347.952,181.4 350.448,181.032 C351.104,180.936 351.648,180.792 352.064,180.52 L351.792,179.32 C351.312,179.544 351.04,179.624 350.176,179.752 C347.216,180.2 345.296,181.032 345.296,186.28 C345.296,189.416 346.64,191.192 348.96,191.192 Z M348.96,190.088 C347.376,190.088 346.576,188.776 346.576,186.536 L346.576,185.928 L346.576,185.928 C347.36,184.872 348.176,184.536 348.928,184.536 C350.272,184.536 351.008,185.544 351.008,187.144 C351.008,188.904 350.16,190.088 348.96,190.088 Z M355.792,194.28 L355.792,191.656 L355.76,190.296 C356.464,190.856 357.2,191.192 357.904,191.192 C359.68,191.192 361.28,189.64 361.28,187 C361.28,184.584 360.192,183.032 358.192,183.032 C357.296,183.032 356.416,183.528 355.712,184.12 L355.664,184.12 L355.552,183.224 L354.464,183.224 L354.464,194.28 L355.792,194.28 Z M357.68,190.072 C357.168,190.072 356.496,189.864 355.792,189.272 L355.792,185.208 C356.544,184.504 357.2,184.152 357.856,184.152 C359.312,184.152 359.904,185.288 359.904,187 C359.904,188.92 358.96,190.072 357.68,190.072 Z M366.368,191.192 C368.272,191.192 369.984,189.704 369.984,187.128 C369.984,184.52 368.272,183.032 366.368,183.032 C364.464,183.032 362.768,184.52 362.768,187.128 C362.768,189.704 364.464,191.192 366.368,191.192 Z M366.368,190.088 C365.04,190.088 364.144,188.904 364.144,187.128 C364.144,185.336 365.04,184.136 366.368,184.136 C367.712,184.136 368.608,185.336 368.608,187.128 C368.608,188.904 367.712,190.088 366.368,190.088 Z M375.088,191.192 C376.016,191.192 376.896,190.84 377.6,190.2 L377.024,189.352 C376.56,189.768 375.92,190.088 375.2,190.088 C373.776,190.088 372.816,188.904 372.816,187.128 C372.816,185.336 373.84,184.136 375.248,184.136 C375.872,184.136 376.368,184.376 376.8,184.776 L377.456,183.944 C376.912,183.432 376.208,183.032 375.184,183.032 C373.184,183.032 371.44,184.52 371.44,187.128 C371.44,189.704 373.024,191.192 375.088,191.192 Z" id="Выброс" fill="#333333" fill-rule="nonzero"></path>
        <path d="M511.04,329 C513.376,329 515.008,327.992 515.008,325.928 C515.008,324.488 514.128,323.656 512.88,323.416 L512.88,323.352 C513.856,323.032 514.416,322.104 514.416,321.064 C514.416,319.224 512.928,318.504 510.8,318.504 L507.68,318.504 L507.68,329 L511.04,329 Z M510.576,322.968 L509.024,322.968 L509.024,319.576 L510.624,319.576 C512.256,319.576 513.088,320.024 513.088,321.24 C513.088,322.312 512.352,322.968 510.576,322.968 Z M510.848,327.928 L509.024,327.928 L509.024,323.992 L510.848,323.992 C512.672,323.992 513.68,324.584 513.68,325.88 C513.68,327.288 512.64,327.928 510.848,327.928 Z M519.376,329 C521.216,329 522.464,328.248 522.464,326.52 C522.464,324.808 521.216,324.088 519.376,324.088 L518.288,324.088 L518.288,321.224 L516.96,321.224 L516.96,329 L519.376,329 Z M525.136,329 L525.136,321.224 L523.808,321.224 L523.808,329 L525.136,329 Z M519.232,327.944 L518.288,327.944 L518.288,325.112 L519.232,325.112 C520.544,325.112 521.168,325.544 521.168,326.52 C521.168,327.496 520.544,327.944 519.232,327.944 Z M530.96,329.192 C532.864,329.192 534.384,327.624 534.384,325.144 C534.384,322.872 533.104,321.512 531.264,321.512 C530.288,321.512 529.328,321.96 528.64,322.808 C528.88,319.608 529.952,319.4 532.448,319.032 C533.104,318.936 533.648,318.792 534.064,318.52 L533.792,317.32 C533.312,317.544 533.04,317.624 532.176,317.752 C529.216,318.2 527.296,319.032 527.296,324.28 C527.296,327.416 528.64,329.192 530.96,329.192 Z M530.96,328.088 C529.376,328.088 528.576,326.776 528.576,324.536 L528.576,323.928 L528.576,323.928 C529.36,322.872 530.176,322.536 530.928,322.536 C532.272,322.536 533.008,323.544 533.008,325.144 C533.008,326.904 532.16,328.088 530.96,328.088 Z M537.792,332.28 L537.792,329.656 L537.76,328.296 C538.464,328.856 539.2,329.192 539.904,329.192 C541.68,329.192 543.28,327.64 543.28,325 C543.28,322.584 542.192,321.032 540.192,321.032 C539.296,321.032 538.416,321.528 537.712,322.12 L537.664,322.12 L537.552,321.224 L536.464,321.224 L536.464,332.28 L537.792,332.28 Z M539.68,328.072 C539.168,328.072 538.496,327.864 537.792,327.272 L537.792,323.208 C538.544,322.504 539.2,322.152 539.856,322.152 C541.312,322.152 541.904,323.288 541.904,325 C541.904,326.92 540.96,328.072 539.68,328.072 Z M548.368,329.192 C550.272,329.192 551.984,327.704 551.984,325.128 C551.984,322.52 550.272,321.032 548.368,321.032 C546.464,321.032 544.768,322.52 544.768,325.128 C544.768,327.704 546.464,329.192 548.368,329.192 Z M548.368,328.088 C547.04,328.088 546.144,326.904 546.144,325.128 C546.144,323.336 547.04,322.136 548.368,322.136 C549.712,322.136 550.608,323.336 550.608,325.128 C550.608,326.904 549.712,328.088 548.368,328.088 Z M557.088,329.192 C558.016,329.192 558.896,328.84 559.6,328.2 L559.024,327.352 C558.56,327.768 557.92,328.088 557.2,328.088 C555.776,328.088 554.816,326.904 554.816,325.128 C554.816,323.336 555.84,322.136 557.248,322.136 C557.872,322.136 558.368,322.376 558.8,322.776 L559.456,321.944 C558.912,321.432 558.208,321.032 557.184,321.032 C555.184,321.032 553.44,322.52 553.44,325.128 C553.44,327.704 555.024,329.192 557.088,329.192 Z" id="Выброс" fill="#333333" fill-rule="nonzero"></path>
        <path d="M120.724,228.192 C123.46,228.192 125.348,226.112 125.348,222.72 C125.348,219.344 123.46,217.344 120.724,217.344 C117.988,217.344 116.1,219.344 116.1,222.72 C116.1,226.112 117.988,228.192 120.724,228.192 Z M120.724,226.544 C119.092,226.544 118.052,225.056 118.052,222.72 C118.052,220.4 119.092,219.008 120.724,219.008 C122.34,219.008 123.396,220.4 123.396,222.72 C123.396,225.056 122.34,226.544 120.724,226.544 Z M130.676,228.192 C132.708,228.192 134.276,226.592 134.276,224.144 C134.276,221.776 132.932,220.48 131.188,220.48 C130.244,220.48 129.348,220.88 128.74,221.616 C128.98,219.024 129.86,218.88 132.212,218.544 C132.9,218.448 133.54,218.288 133.956,217.984 L133.588,216.32 C133.108,216.544 132.74,216.64 131.812,216.768 C128.868,217.2 126.868,218.16 126.868,223.152 C126.868,226.352 128.244,228.192 130.676,228.192 Z M130.66,226.656 C129.38,226.656 128.676,225.584 128.676,223.568 L128.676,223.088 L128.676,223.088 C129.3,222.176 130.004,221.888 130.628,221.888 C131.7,221.888 132.324,222.64 132.324,224.144 C132.324,225.648 131.684,226.656 130.66,226.656 Z M140.244,228 C142.132,228 143.508,227.28 143.508,225.376 C143.508,223.52 142.132,222.816 140.244,222.816 L139.188,222.816 L139.188,220.128 L134.756,220.128 L134.756,221.632 L137.3,221.632 L137.3,228 L140.244,228 Z M140.116,226.544 L139.188,226.544 L139.188,224.24 L140.116,224.24 C141.172,224.24 141.684,224.592 141.684,225.376 C141.684,226.16 141.172,226.544 140.116,226.544 Z M148.628,228.192 C149.652,228.192 150.612,227.904 151.348,227.36 L150.708,226.176 C150.164,226.528 149.556,226.72 148.884,226.72 C147.636,226.72 146.804,225.952 146.612,224.64 L151.572,224.64 C151.636,224.352 151.668,224.064 151.668,223.68 C151.668,221.472 150.516,219.936 148.388,219.936 C146.548,219.936 144.756,221.504 144.756,224.064 C144.756,226.688 146.452,228.192 148.628,228.192 Z M150.004,223.232 L146.612,223.232 C146.772,222.048 147.54,221.408 148.436,221.408 C149.46,221.408 150.004,222.08 150.004,223.232 Z M155.044,228 L155.044,225.248 C155.044,224.464 154.964,223.008 154.868,222.144 L154.932,222.144 C155.156,222.864 155.412,223.664 155.636,224.32 L156.788,227.296 L158.068,227.296 L159.188,224.32 C159.412,223.664 159.668,222.864 159.892,222.144 L159.956,222.144 C159.86,223.008 159.764,224.464 159.764,225.248 L159.764,228 L161.428,228 L161.428,220.144 L159.188,220.144 L158.036,223.264 C157.844,223.808 157.684,224.416 157.492,225.152 L157.428,225.152 C157.268,224.416 157.076,223.808 156.868,223.264 L155.636,220.144 L153.412,220.144 L153.412,228 L155.044,228 Z M168.852,228 L168.852,221.632 L171.78,221.632 L171.78,228 L173.668,228 L173.668,220.128 L166.948,220.128 L166.948,228 L168.852,228 Z M177.892,231.088 L177.892,228.64 L177.828,227.328 C178.452,227.872 179.14,228.192 179.844,228.192 C181.588,228.192 183.188,226.64 183.188,223.952 C183.188,221.52 182.052,219.936 180.1,219.936 C179.236,219.936 178.404,220.4 177.732,220.96 L177.684,220.96 L177.54,220.128 L175.988,220.128 L175.988,231.088 L177.892,231.088 Z M179.428,226.624 C178.98,226.624 178.436,226.464 177.892,226 L177.892,222.368 C178.484,221.776 179.012,221.504 179.572,221.504 C180.74,221.504 181.252,222.416 181.252,223.968 C181.252,225.728 180.452,226.624 179.428,226.624 Z M188.276,228.192 C190.228,228.192 192.02,226.688 192.02,224.08 C192.02,221.456 190.228,219.936 188.276,219.936 C186.308,219.936 184.516,221.456 184.516,224.08 C184.516,226.688 186.308,228.192 188.276,228.192 Z M188.276,226.656 C187.14,226.656 186.468,225.632 186.468,224.08 C186.468,222.512 187.14,221.488 188.276,221.488 C189.412,221.488 190.084,222.512 190.084,224.08 C190.084,225.632 189.412,226.656 188.276,226.656 Z M194.708,230.752 L194.708,228 L199.556,228 L199.556,230.752 L201.188,230.752 L201.364,227.728 L201.364,226.496 L200.164,226.496 L200.164,220.128 L194.724,220.128 L194.34,223.408 C194.052,225.776 193.748,226.288 193.348,226.496 L192.9,226.496 L192.9,227.728 L193.076,230.752 L194.708,230.752 Z M198.276,226.496 L195.252,226.496 C195.588,225.904 195.844,225.04 195.988,223.824 L196.228,221.632 L198.276,221.632 L198.276,226.496 Z M204.804,228.192 C205.732,228.192 206.5,227.744 207.204,227.136 L207.268,227.136 L207.428,228 L208.964,228 L208.964,223.344 C208.964,221.152 207.972,219.936 206.02,219.936 C204.772,219.936 203.652,220.416 202.788,220.96 L203.46,222.208 C204.164,221.792 204.9,221.472 205.668,221.472 C206.724,221.472 207.044,222.144 207.076,222.944 C203.844,223.296 202.468,224.16 202.468,225.888 C202.468,227.264 203.428,228.192 204.804,228.192 Z M205.38,226.688 C204.74,226.688 204.292,226.432 204.292,225.76 C204.292,224.96 204.932,224.48 207.076,224.224 L207.076,225.888 C206.5,226.432 206.02,226.688 205.38,226.688 Z M212.18,228 L213.844,224.688 L214.996,224.688 L214.996,228 L216.676,228 L216.676,224.688 L217.844,224.688 L219.492,228 L221.54,228 L219.188,223.92 L219.7,222.672 C220.02,221.936 220.308,221.776 220.66,221.776 C220.772,221.776 220.852,221.792 220.948,221.824 L221.252,220.064 C221.092,220 220.9,219.968 220.692,219.968 C219.732,219.968 219.06,220.352 218.484,221.6 L217.796,223.184 L216.676,223.184 L216.676,220.128 L214.996,220.128 L214.996,223.184 L213.892,223.184 L213.188,221.6 C212.628,220.352 211.956,219.968 210.996,219.968 C210.788,219.968 210.596,220 210.436,220.064 L210.74,221.824 C210.836,221.792 210.916,221.776 211.028,221.776 C211.38,221.776 211.668,221.936 211.988,222.672 L212.5,223.92 L210.148,228 L212.18,228 Z" id="Объемпродаж" fill="#333333" fill-rule="nonzero" transform="translate(168.820000, 223.704000) rotate(-90.000000) translate(-168.820000, -223.704000) "></path>
        <path d="M331.396,441 L331.396,432.136 L335.412,432.136 L335.412,441 L337.316,441 L337.316,430.536 L329.492,430.536 L329.492,441 L331.396,441 Z M339.604,441.16 C340.964,441.16 341.764,440.248 342.004,438.504 C342.18,437.224 342.324,435.912 342.484,434.632 L344.468,434.632 L344.468,441 L346.356,441 L346.356,433.128 L340.98,433.128 C340.788,434.76 340.612,436.376 340.404,437.992 C340.292,438.968 339.956,439.368 339.476,439.368 C339.332,439.368 339.204,439.336 339.092,439.304 L338.772,441.016 C339.028,441.112 339.268,441.16 339.604,441.16 Z M351.908,441.192 C353.86,441.192 355.652,439.688 355.652,437.08 C355.652,434.456 353.86,432.936 351.908,432.936 C349.94,432.936 348.148,434.456 348.148,437.08 C348.148,439.688 349.94,441.192 351.908,441.192 Z M351.908,439.656 C350.772,439.656 350.1,438.632 350.1,437.08 C350.1,435.512 350.772,434.488 351.908,434.488 C353.044,434.488 353.716,435.512 353.716,437.08 C353.716,438.632 353.044,439.656 351.908,439.656 Z M368.628,443.752 L368.804,440.728 L368.804,439.496 L367.604,439.496 L367.604,433.128 L365.732,433.128 L365.732,439.496 L363.428,439.496 L363.428,433.128 L361.62,433.128 L361.62,439.496 L359.316,439.496 L359.316,433.128 L357.444,433.128 L357.444,441 L366.996,441 L366.996,443.752 L368.628,443.752 Z M372.212,441.192 C373.14,441.192 373.908,440.744 374.612,440.136 L374.676,440.136 L374.836,441 L376.372,441 L376.372,436.344 C376.372,434.152 375.38,432.936 373.428,432.936 C372.18,432.936 371.06,433.416 370.196,433.96 L370.868,435.208 C371.572,434.792 372.308,434.472 373.076,434.472 C374.132,434.472 374.452,435.144 374.484,435.944 C371.252,436.296 369.876,437.16 369.876,438.888 C369.876,440.264 370.836,441.192 372.212,441.192 Z M372.788,439.688 C372.148,439.688 371.7,439.432 371.7,438.76 C371.7,437.96 372.34,437.48 374.484,437.224 L374.484,438.888 C373.908,439.432 373.428,439.688 372.788,439.688 Z M379.46,443.752 L379.46,441 L384.308,441 L384.308,443.752 L385.94,443.752 L386.116,440.728 L386.116,439.496 L384.916,439.496 L384.916,433.128 L379.476,433.128 L379.092,436.408 C378.804,438.776 378.5,439.288 378.1,439.496 L377.652,439.496 L377.652,440.728 L377.828,443.752 L379.46,443.752 Z M383.028,439.496 L380.004,439.496 C380.34,438.904 380.596,438.04 380.74,436.824 L380.98,434.632 L383.028,434.632 L383.028,439.496 Z M390.58,441 C392.468,441 393.844,440.28 393.844,438.376 C393.844,436.52 392.468,435.816 390.58,435.816 L389.444,435.816 L389.444,433.128 L387.54,433.128 L387.54,441 L390.58,441 Z M390.468,439.544 L389.444,439.544 L389.444,437.24 L390.468,437.24 C391.524,437.24 392.02,437.592 392.02,438.376 C392.02,439.16 391.524,439.544 390.468,439.544 Z M400.468,441 L400.468,438.248 C400.468,437.464 400.388,436.008 400.292,435.144 L400.356,435.144 C400.58,435.864 400.836,436.664 401.06,437.32 L402.212,440.296 L403.492,440.296 L404.612,437.32 C404.836,436.664 405.092,435.864 405.316,435.144 L405.38,435.144 C405.284,436.008 405.188,437.464 405.188,438.248 L405.188,441 L406.852,441 L406.852,433.144 L404.612,433.144 L403.46,436.264 C403.268,436.808 403.108,437.416 402.916,438.152 L402.852,438.152 C402.692,437.416 402.5,436.808 402.292,436.264 L401.06,433.144 L398.836,433.144 L398.836,441 L400.468,441 Z M411.092,441.192 C412.02,441.192 412.788,440.744 413.492,440.136 L413.556,440.136 L413.716,441 L415.252,441 L415.252,436.344 C415.252,434.152 414.26,432.936 412.308,432.936 C411.06,432.936 409.94,433.416 409.076,433.96 L409.748,435.208 C410.452,434.792 411.188,434.472 411.956,434.472 C413.012,434.472 413.332,435.144 413.364,435.944 C410.132,436.296 408.756,437.16 408.756,438.888 C408.756,440.264 409.716,441.192 411.092,441.192 Z M411.668,439.688 C411.028,439.688 410.58,439.432 410.58,438.76 C410.58,437.96 411.22,437.48 413.364,437.224 L413.364,438.888 C412.788,439.432 412.308,439.688 411.668,439.688 Z M419.348,441 L419.348,434.632 L422.644,434.632 L422.644,433.128 L417.444,433.128 L417.444,441 L419.348,441 Z M425.556,441.192 C426.484,441.192 427.252,440.744 427.956,440.136 L428.02,440.136 L428.18,441 L429.716,441 L429.716,436.344 C429.716,434.152 428.724,432.936 426.772,432.936 C425.524,432.936 424.404,433.416 423.54,433.96 L424.212,435.208 C424.916,434.792 425.652,434.472 426.42,434.472 C427.476,434.472 427.796,435.144 427.828,435.944 C424.596,436.296 423.22,437.16 423.22,438.888 C423.22,440.264 424.18,441.192 425.556,441.192 Z M426.132,439.688 C425.492,439.688 425.044,439.432 425.044,438.76 C425.044,437.96 425.684,437.48 427.828,437.224 L427.828,438.888 C427.252,439.432 426.772,439.688 426.132,439.688 Z M434.276,441.192 C436.004,441.192 437.636,440.328 437.636,438.792 C437.636,437.704 436.98,437.128 436.036,436.888 L436.036,436.824 C436.884,436.536 437.316,435.832 437.316,435.128 C437.316,433.624 435.876,432.952 434.26,432.952 C433.156,432.952 432.244,433.24 431.428,433.784 L432.148,434.984 C432.772,434.568 433.348,434.376 434.148,434.376 C434.996,434.376 435.54,434.696 435.54,435.336 C435.54,435.912 435.044,436.264 434.052,436.264 L433.044,436.264 L433.044,437.64 L434.212,437.64 C435.268,437.64 435.812,437.96 435.812,438.616 C435.812,439.336 435.06,439.768 434.116,439.768 C433.444,439.768 432.692,439.576 432.02,439.048 L431.268,440.232 C432.244,440.984 433.204,441.192 434.276,441.192 Z M441.412,441 L443.62,437.224 C443.908,436.744 444.26,436.04 444.548,435.384 L444.612,435.384 C444.484,436.552 444.436,437.48 444.436,438.296 L444.436,441 L446.228,441 L446.228,433.144 L444.196,433.144 L441.988,436.936 C441.7,437.416 441.348,438.152 441.06,438.76 L440.996,438.76 C441.092,437.608 441.172,436.68 441.172,435.848 L441.172,433.144 L439.38,433.144 L439.38,441 L441.412,441 Z M450.452,441 L450.452,437.784 L453.524,437.784 L453.524,441 L455.412,441 L455.412,433.128 L453.524,433.128 L453.524,436.12 L450.452,436.12 L450.452,433.128 L448.548,433.128 L448.548,441 L450.452,441 Z M459.636,441.192 C460.564,441.192 461.332,440.744 462.036,440.136 L462.1,440.136 L462.26,441 L463.796,441 L463.796,436.344 C463.796,434.152 462.804,432.936 460.852,432.936 C459.604,432.936 458.484,433.416 457.62,433.96 L458.292,435.208 C458.996,434.792 459.732,434.472 460.5,434.472 C461.556,434.472 461.876,435.144 461.908,435.944 C458.676,436.296 457.3,437.16 457.3,438.888 C457.3,440.264 458.26,441.192 459.636,441.192 Z M460.212,439.688 C459.572,439.688 459.124,439.432 459.124,438.76 C459.124,437.96 459.764,437.48 461.908,437.224 L461.908,438.888 C461.332,439.432 460.852,439.688 460.212,439.688 Z" id="Площадьмагазина" fill="#333333" fill-rule="nonzero"></path>
    </g>
</svg>