<?xml version="1.0" encoding="UTF-8"?>
<svg width="792px" height="432px" viewBox="0 0 792 432" version="1.1" xmlns="http://www.w3.org/2000/svg" xmlns:xlink="http://www.w3.org/1999/xlink">
    <title>onedim-outlier</title>
    <defs>
        <polygon id="path-1" points="0 0.148830769 13.0309455 0.148830769 13.0309455 13.011959 0 13.011959"></polygon>
    </defs>
    <g id="onedim-outlier" stroke="none" stroke-width="1" fill="none" fill-rule="evenodd">
        <rect fill="#FFFFFF" x="0" y="0" width="792" height="432"></rect>
        <line x1="117.5" y1="271.5" x2="692.5" y2="271.5" id="Line" stroke="#F7931E" stroke-width="2"></line>
        <line x1="117.5" y1="251.5" x2="692.5" y2="251.5" id="Line-Copy" stroke="#F7931E" stroke-width="2" stroke-dasharray="6,4"></line>
        <g id="axis/Rectangular" transform="translate(117.000000, 47.000000)" stroke="#636F80" stroke-width="2">
            <polygon id="Path-6" points="0 0 0 280 577 280 577 0"></polygon>
        </g>
        <g id="axis/horizontal-line" transform="translate(111.000000, 103.000000)">
            <path id="line" d="M582,0 L582,1 L7,1 L7,0 L582,0 Z" fill="#BAC0CF" fill-rule="nonzero"></path>
            <line x1="2.5" y1="-2" x2="2.5" y2="3" id="Path-7" stroke="#636F80" transform="translate(2.500000, 0.500000) rotate(-90.000000) translate(-2.500000, -0.500000) "></line>
        </g>
        <g id="axis/horizontal-line-copy" transform="translate(111.000000, 159.000000)">
            <path id="line" d="M582,0 L582,1 L7,1 L7,0 L582,0 Z" fill="#BAC0CF" fill-rule="nonzero"></path>
            <line x1="2.5" y1="-2" x2="2.5" y2="3" id="Path-7" stroke="#636F80" transform="translate(2.500000, 0.500000) rotate(-90.000000) translate(-2.500000, -0.500000) "></line>
        </g>
        <g id="axis/horizontal-line-copy-2" transform="translate(111.000000, 214.000000)">
            <path id="line" d="M582,0 L582,1 L7,1 L7,0 L582,0 Z" fill="#BAC0CF" fill-rule="nonzero"></path>
            <line x1="2.5" y1="-2" x2="2.5" y2="3" id="Path-7" stroke="#636F80" transform="translate(2.500000, 0.500000) rotate(-90.000000) translate(-2.500000, -0.500000) "></line>
        </g>
        <g id="arrow-pointer-copy" transform="translate(221.500000, 200.328427) scale(1, -1) rotate(-90.000000) translate(-221.500000, -200.328427) translate(175.671573, 194.671573)">
            <polygon id="Rectangle" fill="#9A9FAF" transform="translate(86.000000, 5.656854) rotate(-45.000000) translate(-86.000000, -5.656854) " points="90 1.65685425 90 9.65685425 82 9.65685425"></polygon>
            <line x1="0" y1="5.65685425" x2="87.755102" y2="5.65685425" id="Path-40" stroke="#9A9FAF" stroke-width="2" stroke-linecap="round" stroke-linejoin="round" stroke-dasharray="0,5"></line>
        </g>
        <g id="arrow-pointer-copy-3" transform="translate(506.500000, 235.828427) scale(1, -1) rotate(-90.000000) translate(-506.500000, -235.828427) translate(474.171573, 230.171573)">
            <polygon id="Rectangle" fill="#9A9FAF" transform="translate(59.000000, 5.656854) rotate(-45.000000) translate(-59.000000, -5.656854) " points="63 1.65685425 63 9.65685425 55 9.65685425"></polygon>
            <line x1="0" y1="5.65685425" x2="60.2040816" y2="5.65685425" id="Path-40" stroke="#9A9FAF" stroke-width="2" stroke-linecap="round" stroke-linejoin="round" stroke-dasharray="0,5"></line>
        </g>
        <g id="arrow-pointer-copy-2" transform="translate(364.267949, 91.732051) rotate(-195.000000) translate(-364.267949, -91.732051) translate(330.439522, 86.075197)">
            <polygon id="Rectangle" fill="#9A9FAF" transform="translate(62.000000, 5.656854) rotate(-45.000000) translate(-62.000000, -5.656854) " points="66 1.65685425 66 9.65685425 58 9.65685425"></polygon>
            <line x1="0" y1="5.65685425" x2="63.2653061" y2="5.65685425" id="Path-40" stroke="#9A9FAF" stroke-width="2" stroke-linecap="round" stroke-linejoin="round" stroke-dasharray="0,5"></line>
        </g>
        <g id="axis/y-scale" transform="translate(72.083333, 35.396040)">
            <g id="0" transform="translate(0.000000, 279.603960)">
                <path d="M24.9486667,17.192 C26.9806667,17.192 28.2126667,15.288 28.2126667,11.864 C28.2126667,8.44 26.9806667,6.6 24.9486667,6.6 C22.9006667,6.6 21.6686667,8.44 21.6686667,11.864 C21.6686667,15.288 22.9006667,17.192 24.9486667,17.192 Z M24.9486667,16.12 C23.7646667,16.12 22.9646667,14.856 22.9646667,11.864 C22.9646667,8.872 23.7646667,7.672 24.9486667,7.672 C26.1326667,7.672 26.9326667,8.872 26.9326667,11.864 C26.9326667,14.856 26.1326667,16.12 24.9486667,16.12 Z" fill="#333333" fill-rule="nonzero"></path>
                <line x1="39.9166667" y1="8" x2="39.9166667" y2="16" id="Path-7" stroke="#636F80" stroke-width="2" transform="translate(39.916667, 12.000000) rotate(-90.000000) translate(-39.916667, -12.000000) "></line>
            </g>
            <g id="1" transform="translate(0.000000, 223.366337)">
                <path d="M24.7086667,17.192 C26.4846667,17.192 28.1486667,15.944 28.1486667,13.736 C28.1486667,11.528 26.7246667,10.536 24.9966667,10.536 C24.3726667,10.536 23.9086667,10.696 23.4286667,10.952 L23.7006667,7.944 L27.6526667,7.944 L27.6526667,6.792 L22.5326667,6.792 L22.1966667,11.704 L22.9006667,12.152 C23.5086667,11.752 23.9406667,11.544 24.6446667,11.544 C25.9566667,11.544 26.8046667,12.36 26.8046667,13.768 C26.8046667,15.192 25.8286667,16.088 24.5806667,16.088 C23.3806667,16.088 22.6126667,15.528 22.0046667,14.92 L21.3646667,15.8 C22.0686667,16.504 23.0766667,17.192 24.7086667,17.192 Z" id="5" fill="#333333" fill-rule="nonzero"></path>
                <line x1="39.9166667" y1="8" x2="39.9166667" y2="16" id="Path-7" stroke="#636F80" stroke-width="2" transform="translate(39.916667, 12.000000) rotate(-90.000000) translate(-39.916667, -12.000000) "></line>
            </g>
            <g id="2" transform="translate(0.000000, 167.524752)">
                <path d="M20.0366667,17 L20.0366667,15.896 L17.9406667,15.896 L17.9406667,6.792 L16.9166667,6.792 C16.3566667,7.128 15.6846667,7.384 14.7406667,7.544 L14.7406667,8.408 L16.6126667,8.408 L16.6126667,15.896 L14.2766667,15.896 L14.2766667,17 L20.0366667,17 Z M24.9486667,17.192 C26.9806667,17.192 28.2126667,15.288 28.2126667,11.864 C28.2126667,8.44 26.9806667,6.6 24.9486667,6.6 C22.9006667,6.6 21.6686667,8.44 21.6686667,11.864 C21.6686667,15.288 22.9006667,17.192 24.9486667,17.192 Z M24.9486667,16.12 C23.7646667,16.12 22.9646667,14.856 22.9646667,11.864 C22.9646667,8.872 23.7646667,7.672 24.9486667,7.672 C26.1326667,7.672 26.9326667,8.872 26.9326667,11.864 C26.9326667,14.856 26.1326667,16.12 24.9486667,16.12 Z" id="10" fill="#333333" fill-rule="nonzero"></path>
                <line x1="39.9166667" y1="8" x2="39.9166667" y2="16" id="Path-7" stroke="#636F80" stroke-width="2" transform="translate(39.916667, 12.000000) rotate(-90.000000) translate(-39.916667, -12.000000) "></line>
            </g>
            <g id="3" transform="translate(0.000000, 111.683168)">
                <path d="M20.0366667,17 L20.0366667,15.896 L17.9406667,15.896 L17.9406667,6.792 L16.9166667,6.792 C16.3566667,7.128 15.6846667,7.384 14.7406667,7.544 L14.7406667,8.408 L16.6126667,8.408 L16.6126667,15.896 L14.2766667,15.896 L14.2766667,17 L20.0366667,17 Z M24.7086667,17.192 C26.4846667,17.192 28.1486667,15.944 28.1486667,13.736 C28.1486667,11.528 26.7246667,10.536 24.9966667,10.536 C24.3726667,10.536 23.9086667,10.696 23.4286667,10.952 L23.7006667,7.944 L27.6526667,7.944 L27.6526667,6.792 L22.5326667,6.792 L22.1966667,11.704 L22.9006667,12.152 C23.5086667,11.752 23.9406667,11.544 24.6446667,11.544 C25.9566667,11.544 26.8046667,12.36 26.8046667,13.768 C26.8046667,15.192 25.8286667,16.088 24.5806667,16.088 C23.3806667,16.088 22.6126667,15.528 22.0046667,14.92 L21.3646667,15.8 C22.0686667,16.504 23.0766667,17.192 24.7086667,17.192 Z" id="15" fill="#333333" fill-rule="nonzero"></path>
                <line x1="39.9166667" y1="8" x2="39.9166667" y2="16" id="Path-7" stroke="#636F80" stroke-width="2" transform="translate(39.916667, 12.000000) rotate(-90.000000) translate(-39.916667, -12.000000) "></line>
            </g>
            <g id="4" transform="translate(0.000000, 55.841584)">
                <path d="M20.2446667,17 L20.2446667,15.864 L17.1886667,15.864 C16.6606667,15.864 16.0366667,15.896 15.4766667,15.944 C17.9566667,13.416 19.7486667,11.576 19.7486667,9.592 C19.7486667,7.8 18.5646667,6.6 16.6766667,6.6 C15.3646667,6.6 14.4526667,7.224 13.6046667,8.184 L14.3566667,8.904 C14.9326667,8.232 15.6686667,7.688 16.5166667,7.688 C17.8126667,7.688 18.4526667,8.504 18.4526667,9.672 C18.4526667,11.32 16.6926667,13.208 13.6526667,16.184 L13.6526667,17 L20.2446667,17 Z M24.9486667,17.192 C26.9806667,17.192 28.2126667,15.288 28.2126667,11.864 C28.2126667,8.44 26.9806667,6.6 24.9486667,6.6 C22.9006667,6.6 21.6686667,8.44 21.6686667,11.864 C21.6686667,15.288 22.9006667,17.192 24.9486667,17.192 Z M24.9486667,16.12 C23.7646667,16.12 22.9646667,14.856 22.9646667,11.864 C22.9646667,8.872 23.7646667,7.672 24.9486667,7.672 C26.1326667,7.672 26.9326667,8.872 26.9326667,11.864 C26.9326667,14.856 26.1326667,16.12 24.9486667,16.12 Z" id="20" fill="#333333" fill-rule="nonzero"></path>
                <line x1="39.9166667" y1="8" x2="39.9166667" y2="16" id="Path-7" stroke="#636F80" stroke-width="2" transform="translate(39.916667, 12.000000) rotate(-90.000000) translate(-39.916667, -12.000000) "></line>
            </g>
            <g id="5" transform="translate(0.000000, 0.000000)">
                <path d="M20.2446667,17 L20.2446667,15.864 L17.1886667,15.864 C16.6606667,15.864 16.0366667,15.896 15.4766667,15.944 C17.9566667,13.416 19.7486667,11.576 19.7486667,9.592 C19.7486667,7.8 18.5646667,6.6 16.6766667,6.6 C15.3646667,6.6 14.4526667,7.224 13.6046667,8.184 L14.3566667,8.904 C14.9326667,8.232 15.6686667,7.688 16.5166667,7.688 C17.8126667,7.688 18.4526667,8.504 18.4526667,9.672 C18.4526667,11.32 16.6926667,13.208 13.6526667,16.184 L13.6526667,17 L20.2446667,17 Z M24.7086667,17.192 C26.4846667,17.192 28.1486667,15.944 28.1486667,13.736 C28.1486667,11.528 26.7246667,10.536 24.9966667,10.536 C24.3726667,10.536 23.9086667,10.696 23.4286667,10.952 L23.7006667,7.944 L27.6526667,7.944 L27.6526667,6.792 L22.5326667,6.792 L22.1966667,11.704 L22.9006667,12.152 C23.5086667,11.752 23.9406667,11.544 24.6446667,11.544 C25.9566667,11.544 26.8046667,12.36 26.8046667,13.768 C26.8046667,15.192 25.8286667,16.088 24.5806667,16.088 C23.3806667,16.088 22.6126667,15.528 22.0046667,14.92 L21.3646667,15.8 C22.0686667,16.504 23.0766667,17.192 24.7086667,17.192 Z" id="25" fill="#333333" fill-rule="nonzero"></path>
                <line x1="39.9166667" y1="8" x2="39.9166667" y2="16" id="Path-7" stroke="#636F80" stroke-width="2" transform="translate(39.916667, 12.000000) rotate(-90.000000) translate(-39.916667, -12.000000) "></line>
            </g>
        </g>
        <path d="M410.04,84 C412.376,84 414.008,82.992 414.008,80.928 C414.008,79.488 413.128,78.656 411.88,78.416 L411.88,78.352 C412.856,78.032 413.416,77.104 413.416,76.064 C413.416,74.224 411.928,73.504 409.8,73.504 L406.68,73.504 L406.68,84 L410.04,84 Z M409.576,77.968 L408.024,77.968 L408.024,74.576 L409.624,74.576 C411.256,74.576 412.088,75.024 412.088,76.24 C412.088,77.312 411.352,77.968 409.576,77.968 Z M409.848,82.928 L408.024,82.928 L408.024,78.992 L409.848,78.992 C411.672,78.992 412.68,79.584 412.68,80.88 C412.68,82.288 411.64,82.928 409.848,82.928 Z M418.376,84 C420.216,84 421.464,83.248 421.464,81.52 C421.464,79.808 420.216,79.088 418.376,79.088 L417.288,79.088 L417.288,76.224 L415.96,76.224 L415.96,84 L418.376,84 Z M424.136,84 L424.136,76.224 L422.808,76.224 L422.808,84 L424.136,84 Z M418.232,82.944 L417.288,82.944 L417.288,80.112 L418.232,80.112 C419.544,80.112 420.168,80.544 420.168,81.52 C420.168,82.496 419.544,82.944 418.232,82.944 Z M429.96,84.192 C431.864,84.192 433.384,82.624 433.384,80.144 C433.384,77.872 432.104,76.512 430.264,76.512 C429.288,76.512 428.328,76.96 427.64,77.808 C427.88,74.608 428.952,74.4 431.448,74.032 C432.104,73.936 432.648,73.792 433.064,73.52 L432.792,72.32 C432.312,72.544 432.04,72.624 431.176,72.752 C428.216,73.2 426.296,74.032 426.296,79.28 C426.296,82.416 427.64,84.192 429.96,84.192 Z M429.96,83.088 C428.376,83.088 427.576,81.776 427.576,79.536 L427.576,78.928 L427.576,78.928 C428.36,77.872 429.176,77.536 429.928,77.536 C431.272,77.536 432.008,78.544 432.008,80.144 C432.008,81.904 431.16,83.088 429.96,83.088 Z M436.792,87.28 L436.792,84.656 L436.76,83.296 C437.464,83.856 438.2,84.192 438.904,84.192 C440.68,84.192 442.28,82.64 442.28,80 C442.28,77.584 441.192,76.032 439.192,76.032 C438.296,76.032 437.416,76.528 436.712,77.12 L436.664,77.12 L436.552,76.224 L435.464,76.224 L435.464,87.28 L436.792,87.28 Z M438.68,83.072 C438.168,83.072 437.496,82.864 436.792,82.272 L436.792,78.208 C437.544,77.504 438.2,77.152 438.856,77.152 C440.312,77.152 440.904,78.288 440.904,80 C440.904,81.92 439.96,83.072 438.68,83.072 Z M447.368,84.192 C449.272,84.192 450.984,82.704 450.984,80.128 C450.984,77.52 449.272,76.032 447.368,76.032 C445.464,76.032 443.768,77.52 443.768,80.128 C443.768,82.704 445.464,84.192 447.368,84.192 Z M447.368,83.088 C446.04,83.088 445.144,81.904 445.144,80.128 C445.144,78.336 446.04,77.136 447.368,77.136 C448.712,77.136 449.608,78.336 449.608,80.128 C449.608,81.904 448.712,83.088 447.368,83.088 Z M456.088,84.192 C457.016,84.192 457.896,83.84 458.6,83.2 L458.024,82.352 C457.56,82.768 456.92,83.088 456.2,83.088 C454.776,83.088 453.816,81.904 453.816,80.128 C453.816,78.336 454.84,77.136 456.248,77.136 C456.872,77.136 457.368,77.376 457.8,77.776 L458.456,76.944 C457.912,76.432 457.208,76.032 456.184,76.032 C454.184,76.032 452.44,77.52 452.44,80.128 C452.44,82.704 454.024,84.192 456.088,84.192 Z" id="Выброс" fill="#333333" fill-rule="nonzero"></path>
        <path d="M367.62,392 L367.62,387.328 L369.108,387.328 L371.908,392 L374.004,392 L370.58,386.448 L371.7,384.256 C372.18,383.344 372.452,383.168 372.868,383.168 C373.044,383.168 373.172,383.184 373.284,383.216 L373.604,381.488 C373.396,381.408 373.124,381.376 372.804,381.376 C371.796,381.376 371.028,381.744 370.308,383.264 L369.092,385.792 L367.62,385.792 L367.62,381.536 L365.716,381.536 L365.716,392 L367.62,392 Z M375.236,392.16 C376.596,392.16 377.396,391.248 377.636,389.504 C377.812,388.224 377.956,386.912 378.116,385.632 L380.1,385.632 L380.1,392 L381.988,392 L381.988,384.128 L376.612,384.128 C376.42,385.76 376.244,387.376 376.036,388.992 C375.924,389.968 375.588,390.368 375.108,390.368 C374.964,390.368 374.836,390.336 374.724,390.304 L374.404,392.016 C374.66,392.112 374.9,392.16 375.236,392.16 Z M386.34,392 L388.548,388.224 C388.836,387.744 389.188,387.04 389.476,386.384 L389.54,386.384 C389.412,387.552 389.364,388.48 389.364,389.296 L389.364,392 L391.156,392 L391.156,384.144 L389.124,384.144 L386.916,387.936 C386.628,388.416 386.276,389.152 385.988,389.76 L385.924,389.76 C386.02,388.608 386.1,387.68 386.1,386.848 L386.1,384.144 L384.308,384.144 L384.308,392 L386.34,392 Z M396.836,392.192 C397.86,392.192 398.82,391.904 399.556,391.36 L398.916,390.176 C398.372,390.528 397.764,390.72 397.092,390.72 C395.844,390.72 395.012,389.952 394.82,388.64 L399.78,388.64 C399.844,388.352 399.876,388.064 399.876,387.68 C399.876,385.472 398.724,383.936 396.596,383.936 C394.756,383.936 392.964,385.504 392.964,388.064 C392.964,390.688 394.66,392.192 396.836,392.192 Z M398.212,387.232 L394.82,387.232 C394.98,386.048 395.748,385.408 396.644,385.408 C397.668,385.408 398.212,386.08 398.212,387.232 Z M403.508,392 L403.508,388.784 L406.58,388.784 L406.58,392 L408.468,392 L408.468,384.128 L406.58,384.128 L406.58,387.12 L403.508,387.12 L403.508,384.128 L401.604,384.128 L401.604,392 L403.508,392 Z M414.388,392 L414.388,385.632 L416.836,385.632 L416.836,384.128 L410.036,384.128 L410.036,385.632 L412.5,385.632 L412.5,392 L414.388,392 Z M421.108,392 C422.996,392 424.372,391.28 424.372,389.376 C424.372,387.52 422.996,386.816 421.108,386.816 L420.308,386.816 L420.308,384.128 L418.404,384.128 L418.404,392 L421.108,392 Z M427.46,392 L427.46,384.128 L425.572,384.128 L425.572,392 L427.46,392 Z M420.996,390.544 L420.308,390.544 L420.308,388.24 L420.996,388.24 C422.036,388.24 422.548,388.592 422.548,389.376 C422.548,390.16 422.036,390.544 420.996,390.544 Z" id="Клиенты" fill="#333333" fill-rule="nonzero"></path>
        <path d="M26.476,192.192 C29.212,192.192 31.1,190.112 31.1,186.72 C31.1,183.344 29.212,181.344 26.476,181.344 C23.74,181.344 21.852,183.344 21.852,186.72 C21.852,190.112 23.74,192.192 26.476,192.192 Z M26.476,190.544 C24.844,190.544 23.804,189.056 23.804,186.72 C23.804,184.4 24.844,183.008 26.476,183.008 C28.092,183.008 29.148,184.4 29.148,186.72 C29.148,189.056 28.092,190.544 26.476,190.544 Z M36.636,192 L36.636,185.632 L39.084,185.632 L39.084,184.128 L32.284,184.128 L32.284,185.632 L34.748,185.632 L34.748,192 L36.636,192 Z M42.556,192 L42.556,185.632 L45.852,185.632 L45.852,184.128 L40.652,184.128 L40.652,192 L42.556,192 Z M49.324,195.088 L49.324,192.64 L49.26,191.328 C49.884,191.872 50.572,192.192 51.276,192.192 C53.02,192.192 54.62,190.64 54.62,187.952 C54.62,185.52 53.484,183.936 51.532,183.936 C50.668,183.936 49.836,184.4 49.164,184.96 L49.116,184.96 L48.972,184.128 L47.42,184.128 L47.42,195.088 L49.324,195.088 Z M50.86,190.624 C50.412,190.624 49.868,190.464 49.324,190 L49.324,186.368 C49.916,185.776 50.444,185.504 51.004,185.504 C52.172,185.504 52.684,186.416 52.684,187.968 C52.684,189.728 51.884,190.624 50.86,190.624 Z M56.924,195.216 C58.652,195.216 59.484,194.128 60.14,192.336 L62.972,184.128 L61.148,184.128 L59.996,187.952 C59.804,188.672 59.596,189.44 59.404,190.176 L59.34,190.176 C59.116,189.424 58.892,188.64 58.652,187.952 L57.324,184.128 L55.404,184.128 L58.492,191.888 L58.348,192.384 C58.092,193.152 57.612,193.696 56.796,193.696 C56.62,193.696 56.476,193.68 56.252,193.616 L55.884,195.04 C56.188,195.152 56.492,195.216 56.924,195.216 Z M66.428,192.192 C68.156,192.192 69.788,191.328 69.788,189.792 C69.788,188.704 69.132,188.128 68.188,187.888 L68.188,187.824 C69.036,187.536 69.468,186.832 69.468,186.128 C69.468,184.624 68.028,183.952 66.412,183.952 C65.308,183.952 64.396,184.24 63.58,184.784 L64.3,185.984 C64.924,185.568 65.5,185.376 66.3,185.376 C67.148,185.376 67.692,185.696 67.692,186.336 C67.692,186.912 67.196,187.264 66.204,187.264 L65.196,187.264 L65.196,188.64 L66.364,188.64 C67.42,188.64 67.964,188.96 67.964,189.616 C67.964,190.336 67.212,190.768 66.268,190.768 C65.596,190.768 64.844,190.576 64.172,190.048 L63.42,191.232 C64.396,191.984 65.356,192.192 66.428,192.192 Z M73.388,192 L73.388,188.688 L74.764,188.688 L76.588,192 L78.636,192 L76.156,187.872 L76.668,186.672 C77.02,185.888 77.34,185.776 77.724,185.776 C77.836,185.776 77.916,185.792 78.012,185.824 L78.316,184.064 C78.156,184 77.964,183.968 77.756,183.968 C76.748,183.968 76.092,184.24 75.436,185.6 L74.716,187.184 L73.388,187.184 L73.388,184.128 L71.516,184.128 L71.516,192 L73.388,192 Z M81.948,192 L84.156,188.224 C84.444,187.744 84.796,187.04 85.084,186.384 L85.148,186.384 C85.02,187.552 84.972,188.48 84.972,189.296 L84.972,192 L86.764,192 L86.764,184.144 L84.732,184.144 L82.524,187.936 C82.236,188.416 81.884,189.152 81.596,189.76 L81.532,189.76 C81.628,188.608 81.708,187.68 81.708,186.848 L81.708,184.144 L79.916,184.144 L79.916,192 L81.948,192 Z" id="Отгрузки" fill="#333333" fill-rule="nonzero" transform="translate(54.308000, 188.280000) rotate(-90.000000) translate(-54.308000, -188.280000) "></path>
        <path d="M154.424,146.192 C155.768,146.192 156.792,145.648 157.64,144.672 L156.904,143.872 C156.232,144.608 155.48,145.008 154.472,145.008 C152.488,145.008 151.24,143.36 151.24,140.72 C151.24,138.112 152.552,136.496 154.52,136.496 C155.416,136.496 156.104,136.864 156.664,137.44 L157.4,136.608 C156.776,135.92 155.784,135.312 154.504,135.312 C151.832,135.312 149.848,137.376 149.848,140.752 C149.848,144.176 151.8,146.192 154.424,146.192 Z M160.792,149.28 L160.792,146.656 L160.76,145.296 C161.464,145.856 162.2,146.192 162.904,146.192 C164.68,146.192 166.28,144.64 166.28,142 C166.28,139.584 165.192,138.032 163.192,138.032 C162.296,138.032 161.416,138.528 160.712,139.12 L160.664,139.12 L160.552,138.224 L159.464,138.224 L159.464,149.28 L160.792,149.28 Z M162.68,145.072 C162.168,145.072 161.496,144.864 160.792,144.272 L160.792,140.208 C161.544,139.504 162.2,139.152 162.856,139.152 C164.312,139.152 164.904,140.288 164.904,142 C164.904,143.92 163.96,145.072 162.68,145.072 Z M171.48,146.192 C172.552,146.192 173.384,145.872 174.056,145.392 L173.592,144.544 C173.048,144.912 172.392,145.12 171.64,145.12 C170.168,145.12 169.192,144.064 169.08,142.464 L174.312,142.464 C174.36,142.208 174.376,141.968 174.376,141.68 C174.376,139.44 173.24,138.032 171.256,138.032 C169.48,138.032 167.768,139.584 167.768,142.112 C167.768,144.688 169.4,146.192 171.48,146.192 Z M173.192,141.44 L169.08,141.44 C169.24,139.952 170.2,139.088 171.288,139.088 C172.472,139.088 173.192,139.904 173.192,141.44 Z M176.552,148.752 L176.552,146 L181.864,146 L181.864,148.752 L183,148.752 L183.144,145.76 L183.144,144.912 L182.008,144.912 L182.008,138.224 L177.16,138.224 L176.744,141.664 C176.44,144.16 176.088,144.688 175.656,144.912 L175.272,144.912 L175.272,145.76 L175.416,148.752 L176.552,148.752 Z M180.68,144.912 L177.08,144.912 C177.432,144.352 177.736,143.44 177.912,141.92 L178.216,139.296 L180.68,139.296 L180.68,144.912 Z M186.136,146 L186.136,142.544 L189.864,142.544 L189.864,146 L191.192,146 L191.192,138.224 L189.864,138.224 L189.864,141.376 L186.136,141.376 L186.136,138.224 L184.808,138.224 L184.808,146 L186.136,146 Z M196.936,146.192 C198.008,146.192 198.84,145.872 199.512,145.392 L199.048,144.544 C198.504,144.912 197.848,145.12 197.096,145.12 C195.624,145.12 194.648,144.064 194.536,142.464 L199.768,142.464 C199.816,142.208 199.832,141.968 199.832,141.68 C199.832,139.44 198.696,138.032 196.712,138.032 C194.936,138.032 193.224,139.584 193.224,142.112 C193.224,144.688 194.856,146.192 196.936,146.192 Z M198.648,141.44 L194.536,141.44 C194.696,139.952 195.656,139.088 196.744,139.088 C197.928,139.088 198.648,139.904 198.648,141.44 Z M204.872,146.192 C205.944,146.192 206.776,145.872 207.448,145.392 L206.984,144.544 C206.44,144.912 205.784,145.12 205.032,145.12 C203.56,145.12 202.584,144.064 202.472,142.464 L207.704,142.464 C207.752,142.208 207.768,141.968 207.768,141.68 C207.768,139.44 206.632,138.032 204.648,138.032 C202.872,138.032 201.16,139.584 201.16,142.112 C201.16,144.688 202.792,146.192 204.872,146.192 Z M206.584,141.44 L202.472,141.44 C202.632,139.952 203.592,139.088 204.68,139.088 C205.864,139.088 206.584,139.904 206.584,141.44 Z M215.944,146.192 C216.872,146.192 217.752,145.84 218.456,145.2 L217.88,144.352 C217.416,144.768 216.776,145.088 216.056,145.088 C214.632,145.088 213.672,143.904 213.672,142.128 C213.672,140.336 214.696,139.136 216.104,139.136 C216.728,139.136 217.224,139.376 217.656,139.776 L218.312,138.944 C217.768,138.432 217.064,138.032 216.04,138.032 C214.04,138.032 212.296,139.52 212.296,142.128 C212.296,144.704 213.88,146.192 215.944,146.192 Z M226.472,146 C228.28,146 229.544,145.312 229.544,143.776 C229.544,142.656 228.792,142.112 227.928,141.92 L227.928,141.856 C228.728,141.616 229.224,141.056 229.224,140.192 C229.224,138.784 228.056,138.224 226.36,138.224 L223.368,138.224 L223.368,146 L226.472,146 Z M226.136,141.456 L224.648,141.456 L224.648,139.2 L226.216,139.2 C227.432,139.2 227.944,139.616 227.944,140.32 C227.944,141.024 227.432,141.456 226.136,141.456 Z M226.344,145.008 L224.648,145.008 L224.648,142.464 L226.248,142.464 C227.576,142.464 228.264,142.928 228.264,143.696 C228.264,144.528 227.64,145.008 226.344,145.008 Z M233.912,146 C235.752,146 237,145.248 237,143.52 C237,141.808 235.752,141.088 233.912,141.088 L232.824,141.088 L232.824,138.224 L231.496,138.224 L231.496,146 L233.912,146 Z M239.672,146 L239.672,138.224 L238.344,138.224 L238.344,146 L239.672,146 Z M233.768,144.944 L232.824,144.944 L232.824,142.112 L233.768,142.112 C235.08,142.112 235.704,142.544 235.704,143.52 C235.704,144.496 235.08,144.944 233.768,144.944 Z M245.496,146.192 C247.4,146.192 248.92,144.624 248.92,142.144 C248.92,139.872 247.64,138.512 245.8,138.512 C244.824,138.512 243.864,138.96 243.176,139.808 C243.416,136.608 244.488,136.4 246.984,136.032 C247.64,135.936 248.184,135.792 248.6,135.52 L248.328,134.32 C247.848,134.544 247.576,134.624 246.712,134.752 C243.752,135.2 241.832,136.032 241.832,141.28 C241.832,144.416 243.176,146.192 245.496,146.192 Z M245.496,145.088 C243.912,145.088 243.112,143.776 243.112,141.536 L243.112,140.928 L243.112,140.928 C243.896,139.872 244.712,139.536 245.464,139.536 C246.808,139.536 247.544,140.544 247.544,142.144 C247.544,143.904 246.696,145.088 245.496,145.088 Z M252.328,149.28 L252.328,146.656 L252.296,145.296 C253,145.856 253.736,146.192 254.44,146.192 C256.216,146.192 257.816,144.64 257.816,142 C257.816,139.584 256.728,138.032 254.728,138.032 C253.832,138.032 252.952,138.528 252.248,139.12 L252.2,139.12 L252.088,138.224 L251,138.224 L251,149.28 L252.328,149.28 Z M254.216,145.072 C253.704,145.072 253.032,144.864 252.328,144.272 L252.328,140.208 C253.08,139.504 253.736,139.152 254.392,139.152 C255.848,139.152 256.44,140.288 256.44,142 C256.44,143.92 255.496,145.072 254.216,145.072 Z M262.904,146.192 C264.808,146.192 266.52,144.704 266.52,142.128 C266.52,139.52 264.808,138.032 262.904,138.032 C261,138.032 259.304,139.52 259.304,142.128 C259.304,144.704 261,146.192 262.904,146.192 Z M262.904,145.088 C261.576,145.088 260.68,143.904 260.68,142.128 C260.68,140.336 261.576,139.136 262.904,139.136 C264.248,139.136 265.144,140.336 265.144,142.128 C265.144,143.904 264.248,145.088 262.904,145.088 Z M271.624,146.192 C272.552,146.192 273.432,145.84 274.136,145.2 L273.56,144.352 C273.096,144.768 272.456,145.088 271.736,145.088 C270.312,145.088 269.352,143.904 269.352,142.128 C269.352,140.336 270.376,139.136 271.784,139.136 C272.408,139.136 272.904,139.376 273.336,139.776 L273.992,138.944 C273.448,138.432 272.744,138.032 271.72,138.032 C269.72,138.032 267.976,139.52 267.976,142.128 C267.976,144.704 269.56,146.192 271.624,146.192 Z M278.536,146.192 C280.44,146.192 282.152,144.704 282.152,142.128 C282.152,139.52 280.44,138.032 278.536,138.032 C276.632,138.032 274.936,139.52 274.936,142.128 C274.936,144.704 276.632,146.192 278.536,146.192 Z M278.536,145.088 C277.208,145.088 276.312,143.904 276.312,142.128 C276.312,140.336 277.208,139.136 278.536,139.136 C279.88,139.136 280.776,140.336 280.776,142.128 C280.776,143.904 279.88,145.088 278.536,145.088 Z M285.368,146 L285.368,142.48 C285.368,141.792 285.304,140.608 285.224,139.792 L285.288,139.792 C285.512,140.432 285.768,141.104 285.992,141.712 L287.448,145.264 L288.44,145.264 L289.88,141.712 C290.104,141.104 290.344,140.432 290.568,139.792 L290.632,139.792 C290.568,140.608 290.488,141.792 290.488,142.48 L290.488,146 L291.688,146 L291.688,138.224 L290.104,138.224 L288.648,141.856 C288.44,142.432 288.216,143.072 287.992,143.776 L287.928,143.776 C287.736,143.072 287.496,142.432 287.272,141.856 L285.752,138.224 L284.184,138.224 L284.184,146 L285.368,146 Z" id="Среднеесвыбросом" fill="#333333" fill-rule="nonzero"></path>
        <path d="M399.888,195.192 C401.232,195.192 402.256,194.648 403.104,193.672 L402.368,192.872 C401.696,193.608 400.944,194.008 399.936,194.008 C397.952,194.008 396.704,192.36 396.704,189.72 C396.704,187.112 398.016,185.496 399.984,185.496 C400.88,185.496 401.568,185.864 402.128,186.44 L402.864,185.608 C402.24,184.92 401.248,184.312 399.968,184.312 C397.296,184.312 395.312,186.376 395.312,189.752 C395.312,193.176 397.264,195.192 399.888,195.192 Z M406.256,198.28 L406.256,195.656 L406.224,194.296 C406.928,194.856 407.664,195.192 408.368,195.192 C410.144,195.192 411.744,193.64 411.744,191 C411.744,188.584 410.656,187.032 408.656,187.032 C407.76,187.032 406.88,187.528 406.176,188.12 L406.128,188.12 L406.016,187.224 L404.928,187.224 L404.928,198.28 L406.256,198.28 Z M408.144,194.072 C407.632,194.072 406.96,193.864 406.256,193.272 L406.256,189.208 C407.008,188.504 407.664,188.152 408.32,188.152 C409.776,188.152 410.368,189.288 410.368,191 C410.368,192.92 409.424,194.072 408.144,194.072 Z M416.944,195.192 C418.016,195.192 418.848,194.872 419.52,194.392 L419.056,193.544 C418.512,193.912 417.856,194.12 417.104,194.12 C415.632,194.12 414.656,193.064 414.544,191.464 L419.776,191.464 C419.824,191.208 419.84,190.968 419.84,190.68 C419.84,188.44 418.704,187.032 416.72,187.032 C414.944,187.032 413.232,188.584 413.232,191.112 C413.232,193.688 414.864,195.192 416.944,195.192 Z M418.656,190.44 L414.544,190.44 C414.704,188.952 415.664,188.088 416.752,188.088 C417.936,188.088 418.656,188.904 418.656,190.44 Z M422.016,197.752 L422.016,195 L427.328,195 L427.328,197.752 L428.464,197.752 L428.608,194.76 L428.608,193.912 L427.472,193.912 L427.472,187.224 L422.624,187.224 L422.208,190.664 C421.904,193.16 421.552,193.688 421.12,193.912 L420.736,193.912 L420.736,194.76 L420.88,197.752 L422.016,197.752 Z M426.144,193.912 L422.544,193.912 C422.896,193.352 423.2,192.44 423.376,190.92 L423.68,188.296 L426.144,188.296 L426.144,193.912 Z M431.6,195 L431.6,191.544 L435.328,191.544 L435.328,195 L436.656,195 L436.656,187.224 L435.328,187.224 L435.328,190.376 L431.6,190.376 L431.6,187.224 L430.272,187.224 L430.272,195 L431.6,195 Z M442.4,195.192 C443.472,195.192 444.304,194.872 444.976,194.392 L444.512,193.544 C443.968,193.912 443.312,194.12 442.56,194.12 C441.088,194.12 440.112,193.064 440,191.464 L445.232,191.464 C445.28,191.208 445.296,190.968 445.296,190.68 C445.296,188.44 444.16,187.032 442.176,187.032 C440.4,187.032 438.688,188.584 438.688,191.112 C438.688,193.688 440.32,195.192 442.4,195.192 Z M444.112,190.44 L440,190.44 C440.16,188.952 441.12,188.088 442.208,188.088 C443.392,188.088 444.112,188.904 444.112,190.44 Z M450.336,195.192 C451.408,195.192 452.24,194.872 452.912,194.392 L452.448,193.544 C451.904,193.912 451.248,194.12 450.496,194.12 C449.024,194.12 448.048,193.064 447.936,191.464 L453.168,191.464 C453.216,191.208 453.232,190.968 453.232,190.68 C453.232,188.44 452.096,187.032 450.112,187.032 C448.336,187.032 446.624,188.584 446.624,191.112 C446.624,193.688 448.256,195.192 450.336,195.192 Z M452.048,190.44 L447.936,190.44 C448.096,188.952 449.056,188.088 450.144,188.088 C451.328,188.088 452.048,188.904 452.048,190.44 Z M459.664,195 L459.664,188.296 L463.232,188.296 L463.232,195 L464.56,195 L464.56,187.224 L458.336,187.224 L458.336,195 L459.664,195 Z M470.208,195.192 C472.112,195.192 473.824,193.704 473.824,191.128 C473.824,188.52 472.112,187.032 470.208,187.032 C468.304,187.032 466.608,188.52 466.608,191.128 C466.608,193.704 468.304,195.192 470.208,195.192 Z M470.208,194.088 C468.88,194.088 467.984,192.904 467.984,191.128 C467.984,189.336 468.88,188.136 470.208,188.136 C471.552,188.136 472.448,189.336 472.448,191.128 C472.448,192.904 471.552,194.088 470.208,194.088 Z M478.928,195.192 C479.856,195.192 480.736,194.84 481.44,194.2 L480.864,193.352 C480.4,193.768 479.76,194.088 479.04,194.088 C477.616,194.088 476.656,192.904 476.656,191.128 C476.656,189.336 477.68,188.136 479.088,188.136 C479.712,188.136 480.208,188.376 480.64,188.776 L481.296,187.944 C480.752,187.432 480.048,187.032 479.024,187.032 C477.024,187.032 475.28,188.52 475.28,191.128 C475.28,193.704 476.864,195.192 478.928,195.192 Z M482.928,195.144 C484.064,195.144 484.768,194.296 484.992,192.6 C485.168,191.176 485.328,189.736 485.504,188.296 L487.904,188.296 L487.904,195 L489.232,195 L489.232,187.224 L484.448,187.224 C484.256,188.904 484.064,190.584 483.856,192.264 C483.712,193.368 483.36,193.864 482.816,193.864 C482.672,193.864 482.56,193.832 482.464,193.8 L482.208,195.016 C482.432,195.112 482.624,195.144 482.928,195.144 Z M494.992,195.192 C496.064,195.192 496.896,194.872 497.568,194.392 L497.104,193.544 C496.56,193.912 495.904,194.12 495.152,194.12 C493.68,194.12 492.704,193.064 492.592,191.464 L497.824,191.464 C497.872,191.208 497.888,190.968 497.888,190.68 C497.888,188.44 496.752,187.032 494.768,187.032 C492.992,187.032 491.28,188.584 491.28,191.112 C491.28,193.688 492.912,195.192 494.992,195.192 Z M496.704,190.44 L492.592,190.44 C492.752,188.952 493.712,188.088 494.8,188.088 C495.984,188.088 496.704,188.904 496.704,190.44 Z M503.136,198.344 C504.688,198.344 505.504,197.176 506.048,195.64 L508.976,187.224 L507.68,187.224 L506.288,191.512 C506.08,192.2 505.856,193 505.648,193.704 L505.584,193.704 C505.328,192.984 505.072,192.184 504.816,191.512 L503.248,187.224 L501.872,187.224 L504.992,195.016 L504.816,195.592 C504.496,196.552 503.936,197.24 503.072,197.24 C502.88,197.24 502.688,197.208 502.496,197.144 L502.208,198.184 C502.464,198.28 502.768,198.344 503.136,198.344 Z M510.64,197.752 L510.64,195 L515.952,195 L515.952,197.752 L517.088,197.752 L517.232,194.76 L517.232,193.912 L516.096,193.912 L516.096,187.224 L511.248,187.224 L510.832,190.664 C510.528,193.16 510.176,193.688 509.744,193.912 L509.36,193.912 L509.36,194.76 L509.504,197.752 L510.64,197.752 Z M514.768,193.912 L511.168,193.912 C511.52,193.352 511.824,192.44 512,190.92 L512.304,188.296 L514.768,188.296 L514.768,193.912 Z M520.752,195.192 C521.728,195.192 522.576,194.696 523.312,194.072 L523.36,194.072 L523.488,195 L524.576,195 L524.576,190.216 C524.576,188.296 523.76,187.032 521.872,187.032 C520.624,187.032 519.536,187.56 518.816,188.04 L519.328,188.936 C519.936,188.536 520.752,188.136 521.648,188.136 C522.912,188.136 523.232,189.08 523.248,190.056 C519.92,190.424 518.48,191.256 518.48,192.984 C518.48,194.392 519.456,195.192 520.752,195.192 Z M521.12,194.104 C520.368,194.104 519.776,193.768 519.776,192.904 C519.776,191.896 520.624,191.304 523.248,191 L523.248,193.112 C522.496,193.768 521.872,194.104 521.12,194.104 Z M526.608,195.144 C527.744,195.144 528.448,194.296 528.672,192.6 C528.848,191.176 529.008,189.736 529.184,188.296 L531.584,188.296 L531.584,195 L532.912,195 L532.912,187.224 L528.128,187.224 C527.936,188.904 527.744,190.584 527.536,192.264 C527.392,193.368 527.04,193.864 526.496,193.864 C526.352,193.864 526.24,193.832 526.144,193.8 L525.888,195.016 C526.112,195.112 526.304,195.144 526.608,195.144 Z M538.672,195.192 C539.744,195.192 540.576,194.872 541.248,194.392 L540.784,193.544 C540.24,193.912 539.584,194.12 538.832,194.12 C537.36,194.12 536.384,193.064 536.272,191.464 L541.504,191.464 C541.552,191.208 541.568,190.968 541.568,190.68 C541.568,188.44 540.432,187.032 538.448,187.032 C536.672,187.032 534.96,188.584 534.96,191.112 C534.96,193.688 536.592,195.192 538.672,195.192 Z M540.384,190.44 L536.272,190.44 C536.432,188.952 537.392,188.088 538.48,188.088 C539.664,188.088 540.384,188.904 540.384,190.44 Z M544.8,195 L544.8,191.544 L548.528,191.544 L548.528,195 L549.856,195 L549.856,187.224 L548.528,187.224 L548.528,190.376 L544.8,190.376 L544.8,187.224 L543.472,187.224 L543.472,195 L544.8,195 Z M553.888,195 L556.656,190.616 C556.96,190.136 557.36,189.432 557.664,188.84 L557.728,188.84 C557.648,189.96 557.6,190.92 557.6,191.752 L557.6,195 L558.864,195 L558.864,187.224 L557.456,187.224 L554.672,191.624 C554.368,192.104 553.968,192.824 553.664,193.384 L553.6,193.384 C553.68,192.28 553.744,191.304 553.744,190.472 L553.744,187.224 L552.464,187.224 L552.464,195 L553.888,195 Z M562.16,195 L564.304,191.944 L565.776,191.944 L565.776,195 L567.072,195 L567.072,187.224 L564.336,187.224 C562.592,187.224 561.28,187.816 561.28,189.512 C561.28,190.76 562.048,191.464 563.056,191.768 L560.688,195 L562.16,195 Z M565.776,190.936 L564.56,190.936 C563.328,190.936 562.592,190.456 562.592,189.528 C562.592,188.648 563.328,188.264 564.56,188.264 L565.776,188.264 L565.776,190.936 Z M576.016,195 C577.824,195 579.088,194.312 579.088,192.776 C579.088,191.656 578.336,191.112 577.472,190.92 L577.472,190.856 C578.272,190.616 578.768,190.056 578.768,189.192 C578.768,187.784 577.6,187.224 575.904,187.224 L572.912,187.224 L572.912,195 L576.016,195 Z M575.68,190.456 L574.192,190.456 L574.192,188.2 L575.76,188.2 C576.976,188.2 577.488,188.616 577.488,189.32 C577.488,190.024 576.976,190.456 575.68,190.456 Z M575.888,194.008 L574.192,194.008 L574.192,191.464 L575.792,191.464 C577.12,191.464 577.808,191.928 577.808,192.696 C577.808,193.528 577.184,194.008 575.888,194.008 Z M583.456,195 C585.296,195 586.544,194.248 586.544,192.52 C586.544,190.808 585.296,190.088 583.456,190.088 L582.368,190.088 L582.368,187.224 L581.04,187.224 L581.04,195 L583.456,195 Z M589.216,195 L589.216,187.224 L587.888,187.224 L587.888,195 L589.216,195 Z M583.312,193.944 L582.368,193.944 L582.368,191.112 L583.312,191.112 C584.624,191.112 585.248,191.544 585.248,192.52 C585.248,193.496 584.624,193.944 583.312,193.944 Z M595.04,195.192 C596.944,195.192 598.464,193.624 598.464,191.144 C598.464,188.872 597.184,187.512 595.344,187.512 C594.368,187.512 593.408,187.96 592.72,188.808 C592.96,185.608 594.032,185.4 596.528,185.032 C597.184,184.936 597.728,184.792 598.144,184.52 L597.872,183.32 C597.392,183.544 597.12,183.624 596.256,183.752 C593.296,184.2 591.376,185.032 591.376,190.28 C591.376,193.416 592.72,195.192 595.04,195.192 Z M595.04,194.088 C593.456,194.088 592.656,192.776 592.656,190.536 L592.656,189.928 L592.656,189.928 C593.44,188.872 594.256,188.536 595.008,188.536 C596.352,188.536 597.088,189.544 597.088,191.144 C597.088,192.904 596.24,194.088 595.04,194.088 Z M601.872,198.28 L601.872,195.656 L601.84,194.296 C602.544,194.856 603.28,195.192 603.984,195.192 C605.76,195.192 607.36,193.64 607.36,191 C607.36,188.584 606.272,187.032 604.272,187.032 C603.376,187.032 602.496,187.528 601.792,188.12 L601.744,188.12 L601.632,187.224 L600.544,187.224 L600.544,198.28 L601.872,198.28 Z M603.76,194.072 C603.248,194.072 602.576,193.864 601.872,193.272 L601.872,189.208 C602.624,188.504 603.28,188.152 603.936,188.152 C605.392,188.152 605.984,189.288 605.984,191 C605.984,192.92 605.04,194.072 603.76,194.072 Z M612.448,195.192 C614.352,195.192 616.064,193.704 616.064,191.128 C616.064,188.52 614.352,187.032 612.448,187.032 C610.544,187.032 608.848,188.52 608.848,191.128 C608.848,193.704 610.544,195.192 612.448,195.192 Z M612.448,194.088 C611.12,194.088 610.224,192.904 610.224,191.128 C610.224,189.336 611.12,188.136 612.448,188.136 C613.792,188.136 614.688,189.336 614.688,191.128 C614.688,192.904 613.792,194.088 612.448,194.088 Z M621.168,195.192 C622.096,195.192 622.976,194.84 623.68,194.2 L623.104,193.352 C622.64,193.768 622,194.088 621.28,194.088 C619.856,194.088 618.896,192.904 618.896,191.128 C618.896,189.336 619.92,188.136 621.328,188.136 C621.952,188.136 622.448,188.376 622.88,188.776 L623.536,187.944 C622.992,187.432 622.288,187.032 621.264,187.032 C619.264,187.032 617.52,188.52 617.52,191.128 C617.52,193.704 619.104,195.192 621.168,195.192 Z M627.024,195.192 C628,195.192 628.848,194.696 629.584,194.072 L629.632,194.072 L629.76,195 L630.848,195 L630.848,190.216 C630.848,188.296 630.032,187.032 628.144,187.032 C626.896,187.032 625.808,187.56 625.088,188.04 L625.6,188.936 C626.208,188.536 627.024,188.136 627.92,188.136 C629.184,188.136 629.504,189.08 629.52,190.056 C626.192,190.424 624.752,191.256 624.752,192.984 C624.752,194.392 625.728,195.192 627.024,195.192 Z M627.392,194.104 C626.64,194.104 626.048,193.768 626.048,192.904 C626.048,191.896 626.896,191.304 629.52,191 L629.52,193.112 C628.768,193.768 628.144,194.104 627.392,194.104 Z" id="Среднеепослеудалениявыброса" fill="#333333" fill-rule="nonzero"></path>
        <g id="Group" transform="translate(113.000000, 327.000000)">
            <g id="axis/_Label/label-x-scale-no-number" transform="translate(0.000000, 1.000000)">
                <path d="M4.008,24.192 C6.04,24.192 7.272,22.288 7.272,18.864 C7.272,15.44 6.04,13.6 4.008,13.6 C1.96,13.6 0.728,15.44 0.728,18.864 C0.728,22.288 1.96,24.192 4.008,24.192 Z M4.008,23.12 C2.824,23.12 2.024,21.856 2.024,18.864 C2.024,15.872 2.824,14.672 4.008,14.672 C5.192,14.672 5.992,15.872 5.992,18.864 C5.992,21.856 5.192,23.12 4.008,23.12 Z" id="0" fill="#333333" fill-rule="nonzero"></path>
                <line x1="4" y1="0" x2="4" y2="8" id="Path-7" stroke="#636F80" stroke-width="2"></line>
            </g>
            <g id="axis/_Label/label-x-scale-no-number-Copy" transform="translate(52.000000, 1.000000)">
                <path d="M7.048,24 L7.048,22.896 L4.952,22.896 L4.952,13.792 L3.928,13.792 C3.368,14.128 2.696,14.384 1.752,14.544 L1.752,15.408 L3.624,15.408 L3.624,22.896 L1.288,22.896 L1.288,24 L7.048,24 Z" id="1" fill="#333333" fill-rule="nonzero"></path>
                <line x1="4" y1="0" x2="4" y2="8" id="Path-7" stroke="#636F80" stroke-width="2"></line>
            </g>
            <g id="axis/_Label/label-x-scale-no-number-Copy-2" transform="translate(105.000000, 0.000000)">
                <path d="M7.256,24 L7.256,22.864 L4.2,22.864 C3.672,22.864 3.048,22.896 2.488,22.944 C4.968,20.416 6.76,18.576 6.76,16.592 C6.76,14.8 5.576,13.6 3.688,13.6 C2.376,13.6 1.464,14.224 0.616,15.184 L1.368,15.904 C1.944,15.232 2.68,14.688 3.528,14.688 C4.824,14.688 5.464,15.504 5.464,16.672 C5.464,18.32 3.704,20.208 0.664,23.184 L0.664,24 L7.256,24 Z" id="2" fill="#333333" fill-rule="nonzero"></path>
                <line x1="4" y1="0" x2="4" y2="8" id="Path-7" stroke="#636F80" stroke-width="2"></line>
            </g>
            <g id="axis/_Label/label-x-scale-no-number-Copy-3" transform="translate(157.000000, 0.000000)">
                <path d="M3.8,24.192 C5.672,24.192 7.176,23.088 7.176,21.28 C7.176,19.872 6.2,18.976 4.968,18.688 L4.968,18.624 C6.072,18.208 6.808,17.424 6.808,16.192 C6.808,14.544 5.528,13.6 3.752,13.6 C2.552,13.6 1.608,14.144 0.824,14.88 L1.528,15.712 C2.136,15.12 2.856,14.688 3.704,14.688 C4.792,14.688 5.464,15.312 5.464,16.288 C5.464,17.36 4.728,18.192 2.568,18.192 L2.568,19.2 C5,19.2 5.832,20.016 5.832,21.232 C5.832,22.368 4.952,23.088 3.72,23.088 C2.52,23.088 1.72,22.528 1.112,21.888 L0.44,22.752 C1.128,23.504 2.168,24.192 3.8,24.192 Z" id="3" fill="#333333" fill-rule="nonzero"></path>
                <line x1="4" y1="0" x2="4" y2="8" id="Path-7" stroke="#636F80" stroke-width="2"></line>
            </g>
            <g id="axis/_Label/label-x-scale-no-number-Copy-4" transform="translate(210.000000, 0.000000)">
                <path d="M6.136,24 L6.136,21.184 L7.528,21.184 L7.528,20.128 L6.136,20.128 L6.136,13.792 L4.664,13.792 L0.296,20.304 L0.296,21.184 L4.888,21.184 L4.888,24 L6.136,24 Z M4.888,20.128 L1.688,20.128 L4.072,16.656 C4.36,16.144 4.648,15.696 4.904,15.216 L4.968,15.216 C4.936,15.76 4.888,16.64 4.888,17.168 L4.888,20.128 Z" id="4" fill="#333333" fill-rule="nonzero"></path>
                <line x1="4" y1="0" x2="4" y2="8" id="Path-7" stroke="#636F80" stroke-width="2"></line>
            </g>
            <g id="axis/_Label/label-x-scale-no-number-Copy-5" transform="translate(262.000000, 0.000000)">
                <path d="M3.768,24.192 C5.544,24.192 7.208,22.944 7.208,20.736 C7.208,18.528 5.784,17.536 4.056,17.536 C3.432,17.536 2.968,17.696 2.488,17.952 L2.76,14.944 L6.712,14.944 L6.712,13.792 L1.592,13.792 L1.256,18.704 L1.96,19.152 C2.568,18.752 3,18.544 3.704,18.544 C5.016,18.544 5.864,19.36 5.864,20.768 C5.864,22.192 4.888,23.088 3.64,23.088 C2.44,23.088 1.672,22.528 1.064,21.92 L0.424,22.8 C1.128,23.504 2.136,24.192 3.768,24.192 Z" id="5" fill="#333333" fill-rule="nonzero"></path>
                <line x1="4" y1="0" x2="4" y2="8" id="Path-7" stroke="#636F80" stroke-width="2"></line>
            </g>
            <g id="axis/_Label/label-x-scale-no-number-Copy-6" transform="translate(315.000000, 0.000000)">
                <path d="M4.312,24.192 C5.96,24.192 7.336,22.864 7.336,20.912 C7.336,18.816 6.2,17.76 4.424,17.76 C3.592,17.76 2.68,18.272 2.04,19.072 C2.088,15.824 3.304,14.704 4.728,14.704 C5.368,14.704 6.008,15.024 6.408,15.52 L7.144,14.688 C6.584,14.064 5.784,13.6 4.68,13.6 C2.648,13.6 0.792,15.184 0.792,19.28 C0.792,22.56 2.312,24.192 4.312,24.192 Z M4.312,23.152 C3.032,23.152 2.248,22.096 2.072,20.112 C2.712,19.152 3.544,18.752 4.2,18.752 C5.464,18.752 6.088,19.584 6.088,20.912 C6.088,22.256 5.32,23.152 4.312,23.152 Z" id="6" fill="#333333" fill-rule="nonzero"></path>
                <line x1="4" y1="0" x2="4" y2="8" id="Path-7" stroke="#636F80" stroke-width="2"></line>
            </g>
            <g id="axis/_Label/label-x-scale-no-number-Copy-7" transform="translate(367.000000, 0.000000)">
                <path d="M4.12,24 C4.296,20.016 4.856,17.712 7.304,14.608 L7.304,13.792 L0.728,13.792 L0.728,14.944 L5.816,14.944 C3.752,17.76 2.936,20.16 2.76,24 L4.12,24 Z" id="7" fill="#333333" fill-rule="nonzero"></path>
                <line x1="4" y1="0" x2="4" y2="8" id="Path-7" stroke="#636F80" stroke-width="2"></line>
            </g>
            <g id="axis/_Label/label-x-scale-no-number-Copy-8" transform="translate(420.000000, 0.000000)">
                <path d="M4.024,24.192 C6.008,24.192 7.32,22.992 7.32,21.472 C7.32,20.096 6.456,19.376 5.544,18.848 L5.544,18.784 C6.184,18.304 6.952,17.392 6.952,16.32 C6.952,14.736 5.848,13.6 4.072,13.6 C2.424,13.6 1.176,14.656 1.176,16.224 C1.176,17.296 1.848,18.048 2.6,18.576 L2.6,18.64 C1.64,19.152 0.68,20.064 0.68,21.392 C0.68,23.008 2.104,24.192 4.024,24.192 Z M4.744,18.432 C3.512,17.952 2.392,17.44 2.392,16.224 C2.392,15.232 3.096,14.592 4.04,14.592 C5.16,14.592 5.816,15.392 5.816,16.384 C5.816,17.136 5.432,17.824 4.744,18.432 Z M4.056,23.2 C2.808,23.2 1.88,22.384 1.88,21.264 C1.88,20.336 2.488,19.584 3.288,19.056 C4.76,19.648 6.056,20.112 6.056,21.424 C6.056,22.48 5.24,23.2 4.056,23.2 Z" id="8" fill="#333333" fill-rule="nonzero"></path>
                <line x1="4" y1="0" x2="4" y2="8" id="Path-7" stroke="#636F80" stroke-width="2"></line>
            </g>
            <g id="axis/_Label/label-x-scale-no-number-Copy-9" transform="translate(472.000000, 0.000000)">
                <path d="M3.304,24.192 C5.352,24.192 7.208,22.608 7.208,18.512 C7.208,15.232 5.688,13.6 3.672,13.6 C2.04,13.6 0.664,14.928 0.664,16.88 C0.664,18.976 1.8,20.032 3.56,20.032 C4.392,20.032 5.304,19.552 5.944,18.752 C5.88,21.984 4.696,23.088 3.256,23.088 C2.616,23.088 1.992,22.768 1.576,22.288 L0.84,23.12 C1.4,23.728 2.216,24.192 3.304,24.192 Z M3.784,19.04 C2.536,19.04 1.912,18.208 1.912,16.88 C1.912,15.536 2.68,14.656 3.672,14.656 C4.968,14.656 5.752,15.712 5.912,17.696 C5.272,18.64 4.456,19.04 3.784,19.04 Z" id="9" fill="#333333" fill-rule="nonzero"></path>
                <line x1="4" y1="0" x2="4" y2="8" id="Path-7" stroke="#636F80" stroke-width="2"></line>
            </g>
            <g id="axis/_Label/label-x-scale-no-number-Copy-10" transform="translate(521.000000, 0.000000)">
                <path d="M7.072,24 L7.072,22.896 L4.976,22.896 L4.976,13.792 L3.952,13.792 C3.392,14.128 2.72,14.384 1.776,14.544 L1.776,15.408 L3.648,15.408 L3.648,22.896 L1.312,22.896 L1.312,24 L7.072,24 Z M11.984,24.192 C14.016,24.192 15.248,22.288 15.248,18.864 C15.248,15.44 14.016,13.6 11.984,13.6 C9.936,13.6 8.704,15.44 8.704,18.864 C8.704,22.288 9.936,24.192 11.984,24.192 Z M11.984,23.12 C10.8,23.12 10,21.856 10,18.864 C10,15.872 10.8,14.672 11.984,14.672 C13.168,14.672 13.968,15.872 13.968,18.864 C13.968,21.856 13.168,23.12 11.984,23.12 Z" id="10" fill="#333333" fill-rule="nonzero"></path>
                <line x1="8" y1="0" x2="8" y2="8" id="Path-7" stroke="#636F80" stroke-width="2"></line>
            </g>
            <g id="axis/_Label/label-x-scale-no-number-Copy-11" transform="translate(573.000000, 0.000000)">
                <path d="M7.072,24 L7.072,22.896 L4.976,22.896 L4.976,13.792 L3.952,13.792 C3.392,14.128 2.72,14.384 1.776,14.544 L1.776,15.408 L3.648,15.408 L3.648,22.896 L1.312,22.896 L1.312,24 L7.072,24 Z M15.024,24 L15.024,22.896 L12.928,22.896 L12.928,13.792 L11.904,13.792 C11.344,14.128 10.672,14.384 9.728,14.544 L9.728,15.408 L11.6,15.408 L11.6,22.896 L9.264,22.896 L9.264,24 L15.024,24 Z" id="11" fill="#333333" fill-rule="nonzero"></path>
                <line x1="8" y1="0" x2="8" y2="8" id="Path-7" stroke="#636F80" stroke-width="2"></line>
            </g>
        </g>
        <path d="M329,103.5 C329,99.910334 326.08995,97 322.500635,97 C318.91005,97 316,99.910334 316,103.5 C316,107.089666 318.91005,110 322.500635,110 C326.08995,110 329,107.089666 329,103.5" id="Fill-1" fill="#D83F3F"></path>
        <path d="M280,224.5 C280,220.910334 277.08995,218 273.500635,218 C269.91005,218 267,220.910334 267,224.5 C267,228.090936 269.91005,231 273.500635,231 C277.08995,231 280,228.090936 280,224.5" id="Fill-3" fill="#74B0DE"></path>
        <g id="Group-7" transform="translate(163.000000, 297.000000)">
            <mask id="mask-2" fill="white">
                <use xlink:href="#path-1"></use>
            </mask>
            <g id="Clip-6"></g>
            <path d="M13.0309455,6.58039487 C13.0309455,3.02852308 10.1138545,0.148830769 6.51585455,0.148830769 C2.91658182,0.148830769 -0.000509090909,3.02852308 -0.000509090909,6.58039487 C-0.000509090909,10.1322667 2.91658182,13.011959 6.51585455,13.011959 C10.1138545,13.011959 13.0309455,10.1322667 13.0309455,6.58039487" id="Fill-5" fill="#74B0DE" mask="url(#mask-2)"></path>
        </g>
        <path d="M392,231.5 C392,227.910334 389.08995,225 385.500635,225 C381.91005,225 379,227.910334 379,231.5 C379,235.089666 381.91005,238 385.500635,238 C389.08995,238 392,235.089666 392,231.5" id="Fill-8" fill="#74B0DE"></path>
        <path d="M439,250.5 C439,246.910334 436.08995,244 432.500635,244 C428.91005,244 426,246.910334 426,250.5 C426,254.089666 428.91005,257 432.500635,257 C436.08995,257 439,254.089666 439,250.5" id="Fill-10" fill="#74B0DE"></path>
        <path d="M544,258.499365 C544,254.91005 541.08995,252 537.500635,252 C533.91005,252 531,254.91005 531,258.499365 C531,262.08995 533.91005,265 537.500635,265 C541.08995,265 544,262.08995 544,258.499365" id="Fill-12" fill="#74B0DE"></path>
        <path d="M229,303.5 C229,299.910334 226.08995,297 222.500635,297 C218.91005,297 216,299.910334 216,303.5 C216,307.089666 218.91005,310 222.500635,310 C226.08995,310 229,307.089666 229,303.5" id="Fill-14" fill="#74B0DE"></path>
        <path d="M490,297.5 C490,293.910334 487.08995,291 483.500635,291 C479.91005,291 477,293.910334 477,297.5 C477,301.089666 479.91005,304 483.500635,304 C487.08995,304 490,301.089666 490,297.5" id="Fill-16" fill="#74B0DE"></path>
        <path d="M596,311.5 C596,307.910334 593.08995,305 589.500635,305 C585.91005,305 583,307.910334 583,311.5 C583,315.089666 585.91005,318 589.500635,318 C593.08995,318 596,315.089666 596,311.5" id="Fill-18" fill="#74B0DE"></path>
        <path d="M639,237.5 C639,233.910334 636.08995,231 632.500635,231 C628.91005,231 626,233.910334 626,237.5 C626,241.089666 628.91005,244 632.500635,244 C636.08995,244 639,241.089666 639,237.5" id="Fill-20" fill="#74B0DE"></path>
    </g>
</svg>